<svg xmlns="http://www.w3.org/2000/svg" xmlns:xlink="http://www.w3.org/1999/xlink" width="1209" zoomAndPan="magnify" viewBox="0 0 906.75 613.499987" height="818" preserveAspectRatio="xMidYMid meet" version="1.0"><defs><clipPath id="80c6ec56a0"><path d="M 0.246094 0 L 906.253906 0 L 906.253906 613 L 0.246094 613 Z M 0.246094 0 " clip-rule="nonzero"/></clipPath><clipPath id="5fe9aabae1"><path d="M 279 0 L 735 0 L 735 311 L 279 311 Z M 279 0 " clip-rule="nonzero"/></clipPath><clipPath id="d36599a964"><path d="M 0.246094 113 L 453 113 L 453 492 L 0.246094 492 Z M 0.246094 113 " clip-rule="nonzero"/></clipPath><clipPath id="0d9b90ae9d"><path d="M 502 0 L 906.226562 0 L 906.226562 311 L 502 311 Z M 502 0 " clip-rule="nonzero"/></clipPath><clipPath id="37a6c0aaa9"><path d="M 497 0 L 906.226562 0 L 906.226562 223 L 497 223 Z M 497 0 " clip-rule="nonzero"/></clipPath><clipPath id="e44e0c8aff"><path d="M 497 0 L 736 0 L 736 187 L 497 187 Z M 497 0 " clip-rule="nonzero"/></clipPath><clipPath id="248065a65c"><path d="M 696 0 L 906.226562 0 L 906.226562 286 L 696 286 Z M 696 0 " clip-rule="nonzero"/></clipPath><clipPath id="dd6b5c82b3"><path d="M 700 0 L 906.226562 0 L 906.226562 311 L 700 311 Z M 700 0 " clip-rule="nonzero"/></clipPath><clipPath id="bde3ecf5bc"><path d="M 583 65 L 906.226562 65 L 906.226562 513 L 583 513 Z M 583 65 " clip-rule="nonzero"/></clipPath><clipPath id="c99e440c30"><path d="M 645 74 L 906.226562 74 L 906.226562 396 L 645 396 Z M 645 74 " clip-rule="nonzero"/></clipPath><clipPath id="fdb7d51085"><path d="M 742 77 L 906.226562 77 L 906.226562 512 L 742 512 Z M 742 77 " clip-rule="nonzero"/></clipPath><clipPath id="e3d29afb03"><path d="M 653 166 L 906.226562 166 L 906.226562 509 L 653 509 Z M 653 166 " clip-rule="nonzero"/></clipPath><clipPath id="81ddc837f5"><path d="M 520 277 L 906.226562 277 L 906.226562 521 L 520 521 Z M 520 277 " clip-rule="nonzero"/></clipPath><clipPath id="6439760bbd"><path d="M 660 278 L 906.226562 278 L 906.226562 612.699219 L 660 612.699219 Z M 660 278 " clip-rule="nonzero"/></clipPath><clipPath id="76e3401e3c"><path d="M 519 292 L 757 292 L 757 612.699219 L 519 612.699219 Z M 519 292 " clip-rule="nonzero"/></clipPath><clipPath id="438786d530"><path d="M 601 291 L 906.226562 291 L 906.226562 576 L 601 576 Z M 601 291 " clip-rule="nonzero"/></clipPath><clipPath id="bfe0c3a8cc"><path d="M 524 393 L 885 393 L 885 612.699219 L 524 612.699219 Z M 524 393 " clip-rule="nonzero"/></clipPath><clipPath id="be515270be"><path d="M 532 349 L 829 349 L 829 612.699219 L 532 612.699219 Z M 532 349 " clip-rule="nonzero"/></clipPath><clipPath id="37a91c5daa"><path d="M 640 390 L 891 390 L 891 612.699219 L 640 612.699219 Z M 640 390 " clip-rule="nonzero"/></clipPath><clipPath id="747bb8cd4d"><path d="M 601 429 L 874 429 L 874 612.699219 L 601 612.699219 Z M 601 429 " clip-rule="nonzero"/></clipPath><clipPath id="6121935e4f"><path d="M 143 336 L 748 336 L 748 612.699219 L 143 612.699219 Z M 143 336 " clip-rule="nonzero"/></clipPath><clipPath id="d54f723ca0"><path d="M 165 475 L 756 475 L 756 612.699219 L 165 612.699219 Z M 165 475 " clip-rule="nonzero"/></clipPath><clipPath id="4c379f8018"><path d="M 364 386 L 741 386 L 741 612.699219 L 364 612.699219 Z M 364 386 " clip-rule="nonzero"/></clipPath><clipPath id="4e82eaeb67"><path d="M 360 384 L 686 384 L 686 612.699219 L 360 612.699219 Z M 360 384 " clip-rule="nonzero"/></clipPath><clipPath id="7f276e9478"><path d="M 87 364 L 398 364 L 398 612.699219 L 87 612.699219 Z M 87 364 " clip-rule="nonzero"/></clipPath><clipPath id="dc70eca9a8"><path d="M 0.246094 202 L 320 202 L 320 597 L 0.246094 597 Z M 0.246094 202 " clip-rule="nonzero"/></clipPath><clipPath id="bb63609f69"><path d="M 0.246094 280 L 396 280 L 396 612.699219 L 0.246094 612.699219 Z M 0.246094 280 " clip-rule="nonzero"/></clipPath><clipPath id="8d50e27758"><path d="M 0.246094 232 L 111 232 L 111 485 L 0.246094 485 Z M 0.246094 232 " clip-rule="nonzero"/></clipPath><clipPath id="3da67474b3"><rect x="0" width="907" y="0" height="613"/></clipPath></defs><g clip-path="url(#80c6ec56a0)"><g transform="matrix(1, 0, 0, 1, 0.000000000000000028, 0)"><g clip-path="url(#3da67474b3)"><g clip-path="url(#5fe9aabae1)"><path stroke-linecap="round" transform="matrix(1.510734, -0.818538, 0.818538, 1.510734, 382.042975, 189.813861)" fill="none" stroke-linejoin="miter" d="M 5.999999 6.001133 L 152.643904 6.000087 " stroke="#3c62a3" stroke-width="12" stroke-opacity="1" stroke-miterlimit="4"/></g><path stroke-linecap="round" transform="matrix(1.400465, 0.995499, -0.995499, 1.400465, 430.462728, 248.964278)" fill="none" stroke-linejoin="miter" d="M 4.500032 4.499961 L 250.313831 4.499645 " stroke="#3c62a3" stroke-width="9" stroke-opacity="1" stroke-miterlimit="4"/><g clip-path="url(#d36599a964)"><path stroke-linecap="round" transform="matrix(1.484116, -0.865864, 0.865864, 1.484116, 74.06233, 370.739115)" fill="none" stroke-linejoin="miter" d="M 6.000758 6.00084 L 172.63779 6.000723 " stroke="#3c62a3" stroke-width="12" stroke-opacity="1" stroke-miterlimit="4"/></g><g clip-path="url(#0d9b90ae9d)"><path stroke-linecap="round" transform="matrix(1.535567, 0.770944, -0.770944, 1.535567, 614.196462, 59.810246)" fill="none" stroke-linejoin="miter" d="M 6.000269 5.999295 L 162.437219 6.00017 " stroke="#3c62a3" stroke-width="12" stroke-opacity="1" stroke-miterlimit="4"/></g><g clip-path="url(#37a6c0aaa9)"><path stroke-linecap="round" transform="matrix(1.563709, 0.712134, -0.712134, 1.563709, 609.059225, 0.00179707)" fill="none" stroke-linejoin="miter" d="M 5.999481 5.999849 L 135.129353 5.999349 " stroke="#3c62a3" stroke-width="12" stroke-opacity="1" stroke-miterlimit="4"/></g><g clip-path="url(#e44e0c8aff)"><path stroke-linecap="round" transform="matrix(0.130273, 1.713286, -1.713286, 0.130273, 623.814471, 3.953981)" fill="none" stroke-linejoin="miter" d="M 6.000169 6.000003 L 38.204814 6.000047 " stroke="#3c62a3" stroke-width="12" stroke-opacity="1" stroke-miterlimit="4"/></g><g clip-path="url(#248065a65c)"><path stroke-linecap="round" transform="matrix(0.121221, 1.713951, -1.713951, 0.121221, 822.771022, 97.15632)" fill="none" stroke-linejoin="miter" d="M 6.000367 5.999911 L 41.50409 5.999397 " stroke="#3c62a3" stroke-width="12" stroke-opacity="1" stroke-miterlimit="4"/></g><g clip-path="url(#dd6b5c82b3)"><path stroke-linecap="round" transform="matrix(0.753486, 1.544208, -1.544208, 0.753486, 821.751924, 93.365691)" fill="none" stroke-linejoin="miter" d="M 6.000311 6.000008 L 61.930633 5.998831 " stroke="#3c62a3" stroke-width="12" stroke-opacity="1" stroke-miterlimit="4"/></g><g clip-path="url(#bde3ecf5bc)"><path stroke-linecap="round" transform="matrix(-0.804257, 1.518384, -1.518384, -0.804257, 827.346588, 177.49961)" fill="none" stroke-linejoin="miter" d="M 6.000562 6.000086 L 146.713072 5.999369 " stroke="#3c62a3" stroke-width="12" stroke-opacity="1" stroke-miterlimit="4"/></g><g clip-path="url(#c99e440c30)"><path stroke-linecap="round" transform="matrix(-1.260489, 1.167685, -1.167685, -1.260489, 870.667423, 191.751412)" fill="none" stroke-linejoin="miter" d="M 6.000593 5.999979 L 80.807627 5.999596 " stroke="#3c62a3" stroke-width="12" stroke-opacity="1" stroke-miterlimit="4"/></g><g clip-path="url(#fdb7d51085)"><path stroke-linecap="round" transform="matrix(0.274577, 1.696151, -1.696151, 0.274577, 867.683679, 182.545663)" fill="none" stroke-linejoin="miter" d="M 6.000436 6.001185 L 123.919181 6.000498 " stroke="#3c62a3" stroke-width="12" stroke-opacity="1" stroke-miterlimit="4"/></g><g clip-path="url(#e3d29afb03)"><path stroke-linecap="round" transform="matrix(1.249748, 1.179174, -1.179174, 1.249748, 769.67031, 268.412712)" fill="none" stroke-linejoin="miter" d="M 5.999252 5.999211 L 98.493026 5.99934 " stroke="#3c62a3" stroke-width="12" stroke-opacity="1" stroke-miterlimit="4"/></g><g clip-path="url(#81ddc837f5)"><path stroke-linecap="round" transform="matrix(1.716949, -0.066375, 0.066375, 1.716949, 626.225106, 394.242303)" fill="none" stroke-linejoin="miter" d="M 6.000451 5.999308 L 152.551692 5.99976 " stroke="#3c62a3" stroke-width="12" stroke-opacity="1" stroke-miterlimit="4"/></g><g clip-path="url(#6439760bbd)"><path stroke-linecap="round" transform="matrix(1.251671, -1.177132, 1.177132, 1.251671, 763.043359, 501.416676)" fill="none" stroke-linejoin="miter" d="M 6.000677 6.000137 L 96.853695 6.000706 " stroke="#3c62a3" stroke-width="12" stroke-opacity="1" stroke-miterlimit="4"/></g><path stroke-linecap="round" transform="matrix(1.454632, 0.91453, -0.91453, 1.454632, 335.294582, 218.43337)" fill="none" stroke-linejoin="miter" d="M 4.500485 4.499109 L 305.997779 4.500561 " stroke="#3c62a3" stroke-width="9" stroke-opacity="1" stroke-miterlimit="4"/><path stroke-linecap="round" transform="matrix(1.02197, 1.381267, -1.381267, 1.02197, 371.757403, 165.908389)" fill="none" stroke-linejoin="miter" d="M 4.499881 4.49987 L 100.183025 4.499979 " stroke="#3c62a3" stroke-width="9" stroke-opacity="1" stroke-miterlimit="4"/><path stroke-linecap="round" transform="matrix(-0.932284, 1.443318, -1.443318, -0.932284, 379.452898, 174.696573)" fill="none" stroke-linejoin="miter" d="M 4.50024 4.500517 L 40.31501 4.501279 " stroke="#3c62a3" stroke-width="9" stroke-opacity="1" stroke-miterlimit="4"/><g clip-path="url(#76e3401e3c)"><path stroke-linecap="round" transform="matrix(-0.0381116, -1.717809, 1.717809, -0.0381116, 630.273031, 602.705224)" fill="none" stroke-linejoin="miter" d="M 6.001003 6.000224 L 112.386512 6.000125 " stroke="#3c62a3" stroke-width="12" stroke-opacity="1" stroke-miterlimit="4"/></g><g clip-path="url(#438786d530)"><path stroke-linecap="round" transform="matrix(1.628085, -0.549237, 0.549237, 1.628085, 705.490148, 452.300173)" fill="none" stroke-linejoin="miter" d="M 6.000303 6.000212 L 98.735346 6.000158 " stroke="#3c62a3" stroke-width="12" stroke-opacity="1" stroke-miterlimit="4"/></g><g clip-path="url(#bfe0c3a8cc)"><path stroke-linecap="round" transform="matrix(1.442452, -0.933624, 0.933624, 1.442452, 626.693588, 588.682917)" fill="none" stroke-linejoin="miter" d="M 6.000073 5.999003 L 93.840539 6.000512 " stroke="#3c62a3" stroke-width="12" stroke-opacity="1" stroke-miterlimit="4"/></g><g clip-path="url(#be515270be)"><path stroke-linecap="round" transform="matrix(0.859116, -1.488032, 1.488032, 0.859116, 635.390772, 578.975173)" fill="none" stroke-linejoin="miter" d="M 5.998976 5.999915 L 78.966521 5.999859 " stroke="#3c62a3" stroke-width="12" stroke-opacity="1" stroke-miterlimit="4"/></g><g clip-path="url(#37a91c5daa)"><path stroke-linecap="round" transform="matrix(0.469544, -1.652831, 1.652831, 0.469544, 744.338844, 572.419061)" fill="none" stroke-linejoin="miter" d="M 5.999634 6.000787 L 40.970043 5.999478 " stroke="#3c62a3" stroke-width="12" stroke-opacity="1" stroke-miterlimit="4"/></g><g clip-path="url(#747bb8cd4d)"><path stroke-linecap="round" transform="matrix(1.536095, 0.769891, -0.769891, 1.536095, 713.404226, 532.444602)" fill="none" stroke-linejoin="miter" d="M 5.999435 6.000758 L 31.100778 6.000055 " stroke="#3c62a3" stroke-width="12" stroke-opacity="1" stroke-miterlimit="4"/></g><g clip-path="url(#6121935e4f)"><path stroke-linecap="round" transform="matrix(-1.651186, 0.475296, -0.475296, -1.651186, 643.41866, 459.930801)" fill="none" stroke-linejoin="miter" d="M 5.999707 6.000198 L 230.247044 5.999008 " stroke="#3c62a3" stroke-width="12" stroke-opacity="1" stroke-miterlimit="4"/></g><g clip-path="url(#d54f723ca0)"><path stroke-linecap="round" transform="matrix(-1.717923, 0.0325864, -0.0325864, -1.717923, 649.660317, 602.29312)" fill="none" stroke-linejoin="miter" d="M 6.000573 6.000834 L 213.766506 5.999036 " stroke="#3c62a3" stroke-width="12" stroke-opacity="1" stroke-miterlimit="4"/></g><g clip-path="url(#4c379f8018)"><path stroke-linecap="round" transform="matrix(-1.479378, -0.873935, 0.873935, -1.479378, 627.033151, 600.856283)" fill="none" stroke-linejoin="miter" d="M 5.998518 5.999608 L 101.998351 6.000174 " stroke="#3c62a3" stroke-width="12" stroke-opacity="1" stroke-miterlimit="4"/></g><g clip-path="url(#4e82eaeb67)"><path stroke-linecap="round" transform="matrix(-1.237538, -1.191982, 1.191982, -1.237538, 569.366537, 604.760948)" fill="none" stroke-linejoin="miter" d="M 5.999864 6.000322 L 80.543588 6.000902 " stroke="#3c62a3" stroke-width="12" stroke-opacity="1" stroke-miterlimit="4"/></g><g clip-path="url(#7f276e9478)"><path stroke-linecap="round" transform="matrix(-0.942465, -1.436691, 1.436691, -0.942465, 278.270661, 612.575675)" fill="none" stroke-linejoin="miter" d="M 6.000504 5.999188 L 87.679869 5.998821 " stroke="#3c62a3" stroke-width="12" stroke-opacity="1" stroke-miterlimit="4"/></g><g clip-path="url(#dc70eca9a8)"><path stroke-linecap="round" transform="matrix(-1.307213, -1.11513, 1.11513, -1.307213, 204.331342, 493.958731)" fill="none" stroke-linejoin="miter" d="M 5.999207 5.999828 L 150.13271 5.99905 " stroke="#3c62a3" stroke-width="12" stroke-opacity="1" stroke-miterlimit="4"/></g><g clip-path="url(#bb63609f69)"><path stroke-linecap="round" transform="matrix(-1.349865, -1.063102, 1.063102, -1.349865, 280.518946, 610.583307)" fill="none" stroke-linejoin="miter" d="M 6.000697 5.999479 L 193.236128 5.999781 " stroke="#3c62a3" stroke-width="12" stroke-opacity="1" stroke-miterlimit="4"/></g><g clip-path="url(#8d50e27758)"><path stroke-linecap="round" transform="matrix(0.238775, 1.70156, -1.70156, 0.238775, 18.738165, 310.942129)" fill="none" stroke-linejoin="miter" d="M 4.499033 4.499501 L 49.880181 4.499473 " stroke="#3c62a3" stroke-width="9" stroke-opacity="1" stroke-miterlimit="4"/></g></g></g></g></svg>