<svg xmlns="http://www.w3.org/2000/svg" xmlns:xlink="http://www.w3.org/1999/xlink" width="977" zoomAndPan="magnify" viewBox="0 0 732.75 890.999995" height="1188" preserveAspectRatio="xMidYMid meet" version="1.0"><defs><clipPath id="f6fcb32116"><path d="M 0 0.152344 L 732.5 0.152344 L 732.5 890.847656 L 0 890.847656 Z M 0 0.152344 " clip-rule="nonzero"/></clipPath><clipPath id="757071e7de"><path d="M 558 0.152344 L 732.230469 0.152344 L 732.230469 890.726562 L 558 890.726562 Z M 558 0.152344 " clip-rule="nonzero"/></clipPath><clipPath id="a5cc06ab51"><path d="M 0 0.152344 L 174 0.152344 L 174 890.726562 L 0 890.726562 Z M 0 0.152344 " clip-rule="nonzero"/></clipPath><clipPath id="3920337b8e"><path d="M 0 0.152344 L 732.230469 0.152344 L 732.230469 165 L 0 165 Z M 0 0.152344 " clip-rule="nonzero"/></clipPath><clipPath id="bc41da37ba"><path d="M 0 725 L 732.230469 725 L 732.230469 890.726562 L 0 890.726562 Z M 0 725 " clip-rule="nonzero"/></clipPath><clipPath id="1a4135acfb"><rect x="0" width="733" y="0" height="891"/></clipPath></defs><g clip-path="url(#f6fcb32116)"><g transform="matrix(1, 0, 0, 1, 0, 0.000000000000010603)"><g clip-path="url(#1a4135acfb)"><g clip-path="url(#757071e7de)"><path stroke-linecap="round" transform="matrix(-0.0949424, -1.716422, 1.716422, -0.0949424, 710.98638, 853.891143)" fill="none" stroke-linejoin="miter" d="M 5.999734 5.999745 L 490.005354 5.999469 " stroke="#ffebd2" stroke-width="12" stroke-opacity="1" stroke-miterlimit="4"/></g><g clip-path="url(#a5cc06ab51)"><path stroke-linecap="round" transform="matrix(-0.0949424, -1.716422, 1.716422, -0.0949424, 47.508488, 890.590964)" fill="none" stroke-linejoin="miter" d="M 6.000041 6.000536 L 490.003392 6.000135 " stroke="#ffebd2" stroke-width="12" stroke-opacity="1" stroke-miterlimit="4"/></g><g clip-path="url(#3920337b8e)"><path stroke-linecap="round" transform="matrix(1.716422, -0.0949424, 0.0949424, 1.716422, -0.00000628422, 38.029747)" fill="none" stroke-linejoin="miter" d="M 5.99945 5.999497 L 392.957676 5.999764 " stroke="#ffebd2" stroke-width="12" stroke-opacity="1" stroke-miterlimit="4"/></g><g clip-path="url(#bc41da37ba)"><path stroke-linecap="round" transform="matrix(1.716422, -0.0949424, 0.0949424, 1.716422, 46.001143, 869.664369)" fill="none" stroke-linejoin="miter" d="M 6.000984 6.000803 L 392.956941 6.000945 " stroke="#ffebd2" stroke-width="12" stroke-opacity="1" stroke-miterlimit="4"/></g></g></g></g></svg>