<svg xmlns="http://www.w3.org/2000/svg" xmlns:xlink="http://www.w3.org/1999/xlink" width="1184" zoomAndPan="magnify" viewBox="0 0 888 617.999998" height="824" preserveAspectRatio="xMidYMid meet" version="1.0"><defs><clipPath id="99b421ffc9"><path d="M 459 0 L 888 0 L 888 617.761719 L 459 617.761719 Z M 459 0 " clip-rule="nonzero"/></clipPath><clipPath id="079266ea0b"><path d="M 0 0 L 888 0 L 888 399 L 0 399 Z M 0 0 " clip-rule="nonzero"/></clipPath><clipPath id="0b1a937a82"><path d="M 222 0 L 888 0 L 888 516 L 222 516 Z M 222 0 " clip-rule="nonzero"/></clipPath><clipPath id="45fa76c54a"><path d="M 136 0 L 888 0 L 888 494 L 136 494 Z M 136 0 " clip-rule="nonzero"/></clipPath><clipPath id="1dee4de0e6"><path d="M 0 165 L 368 165 L 368 495 L 0 495 Z M 0 165 " clip-rule="nonzero"/></clipPath><clipPath id="67980eed2c"><path d="M 223 283 L 693 283 L 693 617.761719 L 223 617.761719 Z M 223 283 " clip-rule="nonzero"/></clipPath><clipPath id="18bee63b97"><path d="M 184 354 L 567 354 L 567 617.761719 L 184 617.761719 Z M 184 354 " clip-rule="nonzero"/></clipPath><clipPath id="c2054e929a"><path d="M 138 266 L 418 266 L 418 617.761719 L 138 617.761719 Z M 138 266 " clip-rule="nonzero"/></clipPath><clipPath id="de89779116"><path d="M 188 283 L 456 283 L 456 617.761719 L 188 617.761719 Z M 188 283 " clip-rule="nonzero"/></clipPath><clipPath id="2b5b757694"><rect x="0" width="888" y="0" height="618"/></clipPath></defs><g transform="matrix(1, 0, 0, 1, 0, -0.000000000000063332)"><g clip-path="url(#2b5b757694)"><g clip-path="url(#99b421ffc9)"><path stroke-linecap="round" transform="matrix(0.859816, -1.489245, 1.489245, 0.859816, 561.959208, 533.338364)" fill="none" stroke-linejoin="miter" d="M 5.999965 6.000766 L 352.127314 6.000484 " stroke="#ffebd2" stroke-width="12" stroke-opacity="1" stroke-miterlimit="4"/></g><g clip-path="url(#079266ea0b)"><path stroke-linecap="round" transform="matrix(1.641969, -0.510952, 0.510952, 1.641969, 0.816851, 274.590653)" fill="none" stroke-linejoin="miter" d="M 6.0003 5.999025 L 529.459223 6.000016 " stroke="#ffebd2" stroke-width="12" stroke-opacity="1" stroke-miterlimit="4"/></g><g clip-path="url(#0b1a937a82)"><path stroke-linecap="round" transform="matrix(1.398701, -1.000386, 1.000386, 1.398701, 324.709792, 396.848088)" fill="none" stroke-linejoin="miter" d="M 6.000445 6.000536 L 373.95945 6.000111 " stroke="#ffebd2" stroke-width="12" stroke-opacity="1" stroke-miterlimit="4"/></g><g clip-path="url(#45fa76c54a)"><path stroke-linecap="round" transform="matrix(1.473549, -0.886447, 0.886447, 1.473549, 238.974307, 373.135698)" fill="none" stroke-linejoin="miter" d="M 5.998712 6.00048 L 391.046388 6.000654 " stroke="#ffebd2" stroke-width="12" stroke-opacity="1" stroke-miterlimit="4"/></g><g clip-path="url(#1dee4de0e6)"><path stroke-linecap="round" transform="matrix(1.593223, 0.647128, -0.647128, 1.593223, 7.764887, 268.334687)" fill="none" stroke-linejoin="miter" d="M 6.000091 6.000308 L 154.853446 6.000921 " stroke="#ffebd2" stroke-width="12" stroke-opacity="1" stroke-miterlimit="4"/></g><g clip-path="url(#67980eed2c)"><path stroke-linecap="round" transform="matrix(1.507058, 0.828198, -0.828198, 1.507058, 335.680681, 385.734231)" fill="none" stroke-linejoin="miter" d="M 6.000125 6.00015 L 162.873774 5.999807 " stroke="#ffebd2" stroke-width="12" stroke-opacity="1" stroke-miterlimit="4"/></g><g clip-path="url(#18bee63b97)"><path stroke-linecap="round" transform="matrix(1.289994, -1.137124, 1.137124, 1.289994, 286.422939, 602.158817)" fill="none" stroke-linejoin="miter" d="M 6.000143 5.99872 L 121.688474 5.999672 " stroke="#ffebd2" stroke-width="12" stroke-opacity="1" stroke-miterlimit="4"/></g><g clip-path="url(#c2054e929a)"><path stroke-linecap="round" transform="matrix(-0.350819, -1.683467, 1.683467, -0.350819, 293.108631, 615.835433)" fill="none" stroke-linejoin="miter" d="M 6.00035 6.000636 L 136.875691 6.000305 " stroke="#ffebd2" stroke-width="12" stroke-opacity="1" stroke-miterlimit="4"/></g><g clip-path="url(#de89779116)"><path stroke-linecap="round" transform="matrix(0.288557, -1.695249, 1.695249, 0.288557, 293.028329, 608.156585)" fill="none" stroke-linejoin="miter" d="M 6.000767 5.998996 L 123.841575 5.999046 " stroke="#ffebd2" stroke-width="12" stroke-opacity="1" stroke-miterlimit="4"/></g></g></g></svg>