<svg xmlns="http://www.w3.org/2000/svg" xmlns:xlink="http://www.w3.org/1999/xlink" width="1034" zoomAndPan="magnify" viewBox="0 0 775.5 923.999989" height="1232" preserveAspectRatio="xMidYMid meet" version="1.0"><defs><filter x="0%" y="0%" width="100%" height="100%" id="233767c3b1"><feColorMatrix values="0 0 0 0 1 0 0 0 0 1 0 0 0 0 1 0 0 0 1 0" color-interpolation-filters="sRGB"/></filter><clipPath id="6b965efd6c"><path d="M 0 0.296875 L 775 0.296875 L 775 923.703125 L 0 923.703125 Z M 0 0.296875 " clip-rule="nonzero"/></clipPath><clipPath id="83c6325a5f"><path d="M 555 0.296875 L 774.699219 0.296875 L 774.699219 923.460938 L 555 923.460938 Z M 555 0.296875 " clip-rule="nonzero"/></clipPath><clipPath id="df7ad0bc1d"><path d="M 0 0.296875 L 219 0.296875 L 219 923.460938 L 0 923.460938 Z M 0 0.296875 " clip-rule="nonzero"/></clipPath><clipPath id="cd05058ef1"><path d="M 0 0.296875 L 774.699219 0.296875 L 774.699219 201 L 0 201 Z M 0 0.296875 " clip-rule="nonzero"/></clipPath><clipPath id="6328b115f7"><path d="M 0 722 L 774.699219 722 L 774.699219 923.460938 L 0 923.460938 Z M 0 722 " clip-rule="nonzero"/></clipPath><mask id="05b75d9644"><g filter="url(#233767c3b1)"><rect x="-170.61" width="1116.72" fill="#000000" y="-203.279998" height="1330.559985" fill-opacity="0.5"/></g></mask><clipPath id="c7a59e12e8"><rect x="0" width="109" y="0" height="819"/></clipPath><mask id="a76d1efcb8"><g filter="url(#233767c3b1)"><rect x="-170.61" width="1116.72" fill="#000000" y="-203.279998" height="1330.559985" fill-opacity="0.5"/></g></mask><clipPath id="1a92662163"><rect x="0" width="401" y="0" height="517"/></clipPath><mask id="7d9ed41fe7"><g filter="url(#233767c3b1)"><rect x="-170.61" width="1116.72" fill="#000000" y="-203.279998" height="1330.559985" fill-opacity="0.5"/></g></mask><clipPath id="a8dd16f1e5"><rect x="0" width="265" y="0" height="606"/></clipPath><mask id="8e62474a9f"><g filter="url(#233767c3b1)"><rect x="-170.61" width="1116.72" fill="#000000" y="-203.279998" height="1330.559985" fill-opacity="0.5"/></g></mask><clipPath id="bd0a68b032"><rect x="0" width="302" y="0" height="313"/></clipPath><mask id="fae3527af3"><g filter="url(#233767c3b1)"><rect x="-170.61" width="1116.72" fill="#000000" y="-203.279998" height="1330.559985" fill-opacity="0.5"/></g></mask><clipPath id="fa36e7d3c1"><rect x="0" width="372" y="0" height="243"/></clipPath><clipPath id="9ae97a9018"><rect x="0" width="775" y="0" height="924"/></clipPath></defs><g clip-path="url(#6b965efd6c)"><g transform="matrix(1, 0, 0, 1, 0, -0.00000000000004946)"><g clip-path="url(#9ae97a9018)"><g clip-path="url(#83c6325a5f)"><path stroke-linecap="round" transform="matrix(0.187088, -1.70831, 1.70831, 0.187088, 660.651333, 921.20553)" fill="none" stroke-linejoin="miter" d="M 6.000023 5.999832 L 490.003513 5.999604 " stroke="#3c62a3" stroke-width="12" stroke-opacity="1" stroke-miterlimit="4"/></g><g clip-path="url(#df7ad0bc1d)"><path stroke-linecap="round" transform="matrix(0.187088, -1.70831, 1.70831, 0.187088, 0.309073, 848.887288)" fill="none" stroke-linejoin="miter" d="M 5.998867 5.999086 L 490.004863 6.000871 " stroke="#3c62a3" stroke-width="12" stroke-opacity="1" stroke-miterlimit="4"/></g><g clip-path="url(#cd05058ef1)"><path stroke-linecap="round" transform="matrix(1.70831, 0.187088, -0.187088, 1.70831, 92.89216, 0.298134)" fill="none" stroke-linejoin="miter" d="M 6.000108 6.00078 L 392.957307 6.000512 " stroke="#3c62a3" stroke-width="12" stroke-opacity="1" stroke-miterlimit="4"/></g><g clip-path="url(#6328b115f7)"><path stroke-linecap="round" transform="matrix(1.70831, 0.187088, -0.187088, 1.70831, 2.24503, 828.00249)" fill="none" stroke-linejoin="miter" d="M 5.999273 6.000151 L 392.958732 5.999636 " stroke="#3c62a3" stroke-width="12" stroke-opacity="1" stroke-miterlimit="4"/></g><g mask="url(#05b75d9644)"><g transform="matrix(1, 0, 0, 1, 333, 53)"><g clip-path="url(#c7a59e12e8)"><path fill="#3c62a3" d="M 107.664062 5.078125 L 103.449219 39.191406 C 103.394531 39.640625 103.253906 40.066406 103.027344 40.460938 C 102.804688 40.859375 102.511719 41.199219 102.152344 41.476562 C 101.792969 41.757812 101.394531 41.960938 100.953125 42.082031 C 100.515625 42.203125 100.070312 42.234375 99.617188 42.179688 C 99.164062 42.125 98.742188 41.984375 98.34375 41.757812 C 97.949219 41.535156 97.609375 41.242188 97.328125 40.882812 C 97.046875 40.523438 96.847656 40.125 96.726562 39.683594 C 96.605469 39.246094 96.570312 38.800781 96.628906 38.347656 L 100.84375 4.234375 C 100.898438 3.78125 101.039062 3.359375 101.265625 2.960938 C 101.488281 2.566406 101.78125 2.226562 102.140625 1.945312 C 102.5 1.667969 102.898438 1.464844 103.339844 1.34375 C 103.777344 1.222656 104.222656 1.191406 104.675781 1.246094 C 105.128906 1.300781 105.550781 1.441406 105.949219 1.667969 C 106.34375 1.890625 106.683594 2.183594 106.964844 2.542969 C 107.246094 2.902344 107.445312 3.300781 107.566406 3.742188 C 107.6875 4.179688 107.722656 4.625 107.664062 5.078125 Z M 101.765625 52.835938 L 97.546875 86.945312 C 97.492188 87.398438 97.351562 87.820312 97.128906 88.21875 C 96.902344 88.613281 96.609375 88.953125 96.25 89.234375 C 95.890625 89.515625 95.492188 89.714844 95.054688 89.835938 C 94.613281 89.957031 94.167969 89.992188 93.714844 89.933594 C 93.261719 89.878906 92.839844 89.738281 92.441406 89.511719 C 92.046875 89.289062 91.707031 88.996094 91.425781 88.636719 C 91.148438 88.277344 90.945312 87.878906 90.824219 87.4375 C 90.703125 87 90.671875 86.554688 90.726562 86.101562 L 94.941406 51.992188 C 94.996094 51.539062 95.136719 51.113281 95.363281 50.71875 C 95.585938 50.320312 95.878906 49.984375 96.238281 49.703125 C 96.597656 49.421875 96.996094 49.222656 97.4375 49.101562 C 97.875 48.976562 98.320312 48.945312 98.773438 49 C 99.226562 49.058594 99.652344 49.199219 100.046875 49.421875 C 100.445312 49.648438 100.78125 49.9375 101.0625 50.296875 C 101.34375 50.65625 101.542969 51.058594 101.664062 51.496094 C 101.785156 51.9375 101.820312 52.382812 101.765625 52.835938 Z M 95.863281 100.589844 L 91.648438 134.699219 C 91.589844 135.152344 91.449219 135.578125 91.226562 135.972656 C 91 136.371094 90.707031 136.707031 90.347656 136.988281 C 89.988281 137.269531 89.589844 137.46875 89.152344 137.589844 C 88.710938 137.714844 88.265625 137.746094 87.8125 137.691406 C 87.363281 137.632812 86.9375 137.492188 86.539062 137.269531 C 86.144531 137.042969 85.804688 136.753906 85.527344 136.394531 C 85.246094 136.035156 85.042969 135.632812 84.921875 135.195312 C 84.800781 134.753906 84.769531 134.308594 84.824219 133.855469 L 89.039062 99.746094 C 89.097656 99.292969 89.234375 98.871094 89.460938 98.472656 C 89.6875 98.078125 89.976562 97.738281 90.335938 97.457031 C 90.695312 97.175781 91.097656 96.976562 91.535156 96.855469 C 91.972656 96.734375 92.421875 96.699219 92.871094 96.757812 C 93.324219 96.8125 93.75 96.953125 94.144531 97.175781 C 94.542969 97.402344 94.878906 97.695312 95.160156 98.054688 C 95.441406 98.414062 95.640625 98.8125 95.765625 99.25 C 95.886719 99.691406 95.917969 100.136719 95.863281 100.589844 Z M 89.960938 148.34375 L 85.746094 182.457031 C 85.6875 182.90625 85.546875 183.332031 85.324219 183.730469 C 85.097656 184.125 84.808594 184.464844 84.449219 184.746094 C 84.089844 185.023438 83.6875 185.226562 83.25 185.347656 C 82.808594 185.46875 82.363281 185.5 81.914062 185.445312 C 81.460938 185.390625 81.035156 185.25 80.640625 185.023438 C 80.242188 184.800781 79.902344 184.507812 79.625 184.148438 C 79.34375 183.789062 79.140625 183.390625 79.019531 182.949219 C 78.898438 182.511719 78.867188 182.066406 78.921875 181.613281 L 83.136719 147.5 C 83.195312 147.050781 83.335938 146.625 83.558594 146.226562 C 83.785156 145.832031 84.074219 145.492188 84.433594 145.214844 C 84.792969 144.933594 85.195312 144.730469 85.632812 144.609375 C 86.074219 144.488281 86.519531 144.457031 86.972656 144.511719 C 87.421875 144.566406 87.847656 144.707031 88.246094 144.933594 C 88.640625 145.15625 88.980469 145.449219 89.257812 145.808594 C 89.539062 146.167969 89.742188 146.566406 89.863281 147.007812 C 89.984375 147.445312 90.015625 147.890625 89.960938 148.34375 Z M 84.058594 196.101562 L 79.84375 230.210938 C 79.789062 230.664062 79.648438 231.089844 79.421875 231.484375 C 79.199219 231.882812 78.90625 232.21875 78.546875 232.5 C 78.1875 232.78125 77.789062 232.980469 77.347656 233.101562 C 76.910156 233.222656 76.464844 233.257812 76.011719 233.199219 C 75.558594 233.144531 75.132812 233.003906 74.738281 232.78125 C 74.339844 232.554688 74.003906 232.261719 73.722656 231.902344 C 73.441406 231.542969 73.242188 231.144531 73.121094 230.707031 C 72.996094 230.265625 72.964844 229.820312 73.019531 229.367188 L 77.238281 195.257812 C 77.292969 194.804688 77.433594 194.378906 77.65625 193.984375 C 77.882812 193.585938 78.175781 193.25 78.535156 192.96875 C 78.894531 192.6875 79.292969 192.488281 79.730469 192.367188 C 80.171875 192.246094 80.617188 192.210938 81.070312 192.265625 C 81.523438 192.324219 81.945312 192.464844 82.34375 192.6875 C 82.738281 192.914062 83.078125 193.207031 83.359375 193.566406 C 83.636719 193.925781 83.839844 194.324219 83.960938 194.761719 C 84.082031 195.203125 84.113281 195.648438 84.058594 196.101562 Z M 78.15625 243.855469 L 73.941406 277.964844 C 73.886719 278.417969 73.746094 278.84375 73.519531 279.238281 C 73.296875 279.636719 73.003906 279.976562 72.644531 280.253906 C 72.285156 280.535156 71.886719 280.734375 71.445312 280.859375 C 71.007812 280.980469 70.5625 281.011719 70.109375 280.957031 C 69.65625 280.898438 69.230469 280.761719 68.835938 280.535156 C 68.4375 280.308594 68.101562 280.019531 67.820312 279.660156 C 67.539062 279.300781 67.339844 278.898438 67.21875 278.460938 C 67.097656 278.023438 67.0625 277.574219 67.121094 277.125 L 71.335938 243.011719 C 71.390625 242.558594 71.53125 242.136719 71.753906 241.738281 C 71.980469 241.34375 72.273438 241.003906 72.632812 240.722656 C 72.992188 240.445312 73.390625 240.242188 73.828125 240.121094 C 74.269531 240 74.714844 239.96875 75.167969 240.023438 C 75.621094 240.078125 76.042969 240.21875 76.441406 240.445312 C 76.835938 240.667969 77.175781 240.960938 77.457031 241.320312 C 77.738281 241.679688 77.9375 242.078125 78.058594 242.519531 C 78.179688 242.957031 78.214844 243.402344 78.15625 243.855469 Z M 72.253906 291.609375 L 68.039062 325.722656 C 67.984375 326.175781 67.84375 326.597656 67.617188 326.996094 C 67.394531 327.390625 67.101562 327.730469 66.742188 328.011719 C 66.382812 328.289062 65.984375 328.492188 65.542969 328.613281 C 65.105469 328.734375 64.660156 328.765625 64.207031 328.710938 C 63.753906 328.65625 63.332031 328.515625 62.933594 328.289062 C 62.539062 328.066406 62.199219 327.773438 61.917969 327.414062 C 61.636719 327.054688 61.4375 326.65625 61.316406 326.214844 C 61.195312 325.777344 61.160156 325.332031 61.21875 324.878906 L 65.433594 290.769531 C 65.488281 290.316406 65.628906 289.890625 65.855469 289.496094 C 66.078125 289.097656 66.371094 288.757812 66.730469 288.480469 C 67.089844 288.199219 67.488281 288 67.929688 287.875 C 68.367188 287.753906 68.8125 287.722656 69.265625 287.777344 C 69.71875 287.835938 70.144531 287.972656 70.539062 288.199219 C 70.9375 288.425781 71.273438 288.714844 71.554688 289.074219 C 71.835938 289.433594 72.035156 289.835938 72.15625 290.273438 C 72.277344 290.710938 72.3125 291.160156 72.253906 291.609375 Z M 66.355469 339.367188 L 62.136719 373.476562 C 62.082031 373.929688 61.941406 374.355469 61.71875 374.75 C 61.492188 375.148438 61.199219 375.484375 60.839844 375.765625 C 60.480469 376.046875 60.082031 376.246094 59.644531 376.367188 C 59.203125 376.488281 58.757812 376.523438 58.304688 376.46875 C 57.851562 376.410156 57.429688 376.269531 57.03125 376.046875 C 56.636719 375.820312 56.296875 375.527344 56.015625 375.167969 C 55.738281 374.808594 55.535156 374.410156 55.414062 373.972656 C 55.292969 373.53125 55.261719 373.085938 55.316406 372.632812 L 59.53125 338.523438 C 59.585938 338.070312 59.726562 337.644531 59.953125 337.25 C 60.175781 336.851562 60.46875 336.515625 60.828125 336.234375 C 61.1875 335.953125 61.585938 335.753906 62.027344 335.632812 C 62.464844 335.511719 62.910156 335.476562 63.363281 335.535156 C 63.816406 335.589844 64.242188 335.730469 64.636719 335.953125 C 65.035156 336.179688 65.371094 336.472656 65.652344 336.832031 C 65.933594 337.191406 66.132812 337.589844 66.253906 338.027344 C 66.375 338.46875 66.410156 338.914062 66.355469 339.367188 Z M 60.453125 387.121094 L 56.238281 421.234375 C 56.179688 421.683594 56.039062 422.109375 55.816406 422.507812 C 55.589844 422.902344 55.296875 423.242188 54.9375 423.519531 C 54.578125 423.800781 54.179688 424.003906 53.742188 424.125 C 53.300781 424.246094 52.855469 424.277344 52.402344 424.222656 C 51.953125 424.167969 51.527344 424.027344 51.128906 423.800781 C 50.734375 423.578125 50.394531 423.285156 50.117188 422.925781 C 49.835938 422.566406 49.632812 422.167969 49.511719 421.726562 C 49.390625 421.289062 49.359375 420.84375 49.414062 420.390625 L 53.628906 386.277344 C 53.6875 385.828125 53.824219 385.402344 54.050781 385.003906 C 54.277344 384.609375 54.566406 384.269531 54.925781 383.988281 C 55.285156 383.710938 55.6875 383.507812 56.125 383.386719 C 56.5625 383.265625 57.011719 383.234375 57.460938 383.289062 C 57.914062 383.34375 58.339844 383.484375 58.734375 383.710938 C 59.132812 383.933594 59.46875 384.226562 59.75 384.585938 C 60.03125 384.945312 60.230469 385.34375 60.355469 385.785156 C 60.476562 386.222656 60.507812 386.667969 60.453125 387.121094 Z M 54.550781 434.878906 L 50.335938 468.988281 C 50.277344 469.441406 50.136719 469.863281 49.914062 470.261719 C 49.6875 470.65625 49.398438 470.996094 49.039062 471.277344 C 48.679688 471.558594 48.277344 471.757812 47.839844 471.878906 C 47.398438 472 46.953125 472.035156 46.503906 471.976562 C 46.050781 471.921875 45.625 471.78125 45.230469 471.558594 C 44.832031 471.332031 44.492188 471.039062 44.214844 470.679688 C 43.933594 470.320312 43.734375 469.921875 43.609375 469.484375 C 43.488281 469.042969 43.457031 468.597656 43.511719 468.144531 L 47.726562 434.035156 C 47.785156 433.582031 47.925781 433.15625 48.148438 432.761719 C 48.375 432.363281 48.664062 432.027344 49.023438 431.746094 C 49.382812 431.464844 49.785156 431.265625 50.222656 431.144531 C 50.664062 431.019531 51.109375 430.988281 51.5625 431.042969 C 52.011719 431.101562 52.4375 431.242188 52.835938 431.464844 C 53.230469 431.691406 53.570312 431.980469 53.847656 432.339844 C 54.128906 432.699219 54.332031 433.101562 54.453125 433.539062 C 54.574219 433.980469 54.605469 434.425781 54.550781 434.878906 Z M 48.648438 482.632812 L 44.433594 516.742188 C 44.378906 517.195312 44.238281 517.621094 44.011719 518.015625 C 43.789062 518.414062 43.496094 518.75 43.136719 519.03125 C 42.777344 519.3125 42.378906 519.511719 41.9375 519.632812 C 41.5 519.757812 41.054688 519.789062 40.601562 519.734375 C 40.148438 519.675781 39.722656 519.535156 39.328125 519.3125 C 38.929688 519.085938 38.59375 518.796875 38.3125 518.4375 C 38.03125 518.078125 37.832031 517.675781 37.710938 517.238281 C 37.585938 516.796875 37.554688 516.351562 37.609375 515.902344 L 41.828125 481.789062 C 41.882812 481.335938 42.023438 480.914062 42.246094 480.515625 C 42.472656 480.121094 42.765625 479.78125 43.125 479.5 C 43.484375 479.21875 43.882812 479.019531 44.320312 478.898438 C 44.761719 478.777344 45.207031 478.742188 45.660156 478.800781 C 46.113281 478.855469 46.535156 478.996094 46.933594 479.222656 C 47.328125 479.445312 47.667969 479.738281 47.949219 480.097656 C 48.226562 480.457031 48.429688 480.855469 48.550781 481.296875 C 48.671875 481.734375 48.703125 482.179688 48.648438 482.632812 Z M 42.746094 530.386719 L 38.53125 564.5 C 38.476562 564.953125 38.335938 565.375 38.109375 565.773438 C 37.886719 566.167969 37.59375 566.507812 37.234375 566.789062 C 36.875 567.066406 36.476562 567.269531 36.035156 567.390625 C 35.597656 567.511719 35.152344 567.542969 34.699219 567.488281 C 34.246094 567.433594 33.820312 567.292969 33.425781 567.066406 C 33.027344 566.84375 32.691406 566.550781 32.410156 566.191406 C 32.128906 565.832031 31.929688 565.433594 31.808594 564.992188 C 31.6875 564.554688 31.652344 564.109375 31.710938 563.65625 L 35.925781 529.542969 C 35.980469 529.09375 36.121094 528.667969 36.347656 528.273438 C 36.570312 527.875 36.863281 527.535156 37.222656 527.257812 C 37.582031 526.976562 37.980469 526.773438 38.421875 526.652344 C 38.859375 526.53125 39.304688 526.5 39.757812 526.554688 C 40.210938 526.609375 40.632812 526.75 41.03125 526.976562 C 41.425781 527.199219 41.765625 527.492188 42.046875 527.851562 C 42.328125 528.210938 42.527344 528.609375 42.648438 529.050781 C 42.769531 529.488281 42.804688 529.9375 42.746094 530.386719 Z M 36.84375 578.144531 L 32.628906 612.253906 C 32.574219 612.707031 32.433594 613.132812 32.207031 613.527344 C 31.984375 613.925781 31.691406 614.261719 31.332031 614.542969 C 30.972656 614.824219 30.574219 615.023438 30.132812 615.144531 C 29.695312 615.265625 29.25 615.300781 28.796875 615.242188 C 28.34375 615.1875 27.921875 615.046875 27.523438 614.824219 C 27.128906 614.597656 26.789062 614.304688 26.507812 613.945312 C 26.226562 613.585938 26.027344 613.1875 25.90625 612.75 C 25.785156 612.308594 25.75 611.863281 25.808594 611.410156 L 30.023438 577.300781 C 30.078125 576.847656 30.21875 576.421875 30.445312 576.027344 C 30.667969 575.628906 30.960938 575.292969 31.320312 575.011719 C 31.679688 574.730469 32.078125 574.53125 32.519531 574.410156 C 32.957031 574.289062 33.402344 574.253906 33.855469 574.3125 C 34.308594 574.367188 34.734375 574.507812 35.128906 574.730469 C 35.527344 574.957031 35.863281 575.25 36.144531 575.609375 C 36.425781 575.96875 36.625 576.367188 36.746094 576.804688 C 36.867188 577.246094 36.902344 577.691406 36.84375 578.144531 Z M 30.945312 625.898438 L 26.726562 660.007812 C 26.671875 660.460938 26.53125 660.886719 26.308594 661.28125 C 26.082031 661.679688 25.789062 662.019531 25.429688 662.296875 C 25.070312 662.578125 24.671875 662.78125 24.234375 662.902344 C 23.792969 663.023438 23.347656 663.054688 22.894531 663 C 22.441406 662.941406 22.019531 662.804688 21.621094 662.578125 C 21.226562 662.351562 20.886719 662.0625 20.605469 661.703125 C 20.328125 661.34375 20.125 660.941406 20.003906 660.503906 C 19.882812 660.066406 19.851562 659.617188 19.90625 659.167969 L 24.121094 625.054688 C 24.175781 624.601562 24.316406 624.179688 24.542969 623.78125 C 24.765625 623.386719 25.058594 623.046875 25.417969 622.765625 C 25.777344 622.488281 26.175781 622.285156 26.617188 622.164062 C 27.054688 622.042969 27.5 622.011719 27.953125 622.066406 C 28.40625 622.121094 28.832031 622.261719 29.226562 622.488281 C 29.625 622.710938 29.960938 623.003906 30.242188 623.363281 C 30.523438 623.722656 30.722656 624.121094 30.84375 624.5625 C 30.964844 625 31 625.445312 30.945312 625.898438 Z M 25.042969 673.652344 L 20.828125 707.765625 C 20.769531 708.21875 20.628906 708.640625 20.40625 709.039062 C 20.179688 709.433594 19.890625 709.773438 19.53125 710.054688 C 19.171875 710.332031 18.769531 710.535156 18.332031 710.65625 C 17.890625 710.777344 17.445312 710.808594 16.992188 710.753906 C 16.542969 710.699219 16.117188 710.558594 15.71875 710.332031 C 15.324219 710.109375 14.984375 709.816406 14.707031 709.457031 C 14.425781 709.097656 14.222656 708.699219 14.101562 708.257812 C 13.980469 707.820312 13.949219 707.375 14.003906 706.921875 L 18.21875 672.8125 C 18.277344 672.359375 18.414062 671.933594 18.640625 671.539062 C 18.867188 671.140625 19.15625 670.804688 19.515625 670.523438 C 19.875 670.242188 20.277344 670.042969 20.714844 669.917969 C 21.152344 669.796875 21.601562 669.765625 22.050781 669.820312 C 22.503906 669.878906 22.929688 670.019531 23.324219 670.242188 C 23.722656 670.46875 24.0625 670.757812 24.339844 671.117188 C 24.621094 671.476562 24.820312 671.878906 24.945312 672.316406 C 25.066406 672.757812 25.097656 673.203125 25.042969 673.652344 Z M 19.140625 721.410156 L 14.925781 755.519531 C 14.867188 755.972656 14.730469 756.398438 14.503906 756.792969 C 14.277344 757.191406 13.988281 757.527344 13.628906 757.808594 C 13.269531 758.089844 12.867188 758.289062 12.429688 758.410156 C 11.992188 758.53125 11.542969 758.566406 11.09375 758.511719 C 10.640625 758.453125 10.214844 758.3125 9.820312 758.089844 C 9.421875 757.863281 9.082031 757.570312 8.804688 757.214844 C 8.523438 756.851562 8.324219 756.453125 8.199219 756.015625 C 8.078125 755.574219 8.046875 755.128906 8.101562 754.675781 L 12.316406 720.566406 C 12.375 720.113281 12.515625 719.691406 12.738281 719.292969 C 12.964844 718.898438 13.257812 718.558594 13.617188 718.277344 C 13.976562 717.996094 14.375 717.796875 14.8125 717.675781 C 15.253906 717.554688 15.699219 717.519531 16.152344 717.578125 C 16.601562 717.632812 17.027344 717.773438 17.425781 717.996094 C 17.820312 718.222656 18.160156 718.515625 18.4375 718.875 C 18.71875 719.234375 18.921875 719.632812 19.042969 720.070312 C 19.164062 720.511719 19.195312 720.957031 19.140625 721.410156 Z M 13.238281 769.164062 L 9.023438 803.277344 C 8.96875 803.726562 8.828125 804.152344 8.601562 804.550781 C 8.378906 804.945312 8.085938 805.285156 7.726562 805.5625 C 7.367188 805.84375 6.96875 806.046875 6.527344 806.167969 C 6.089844 806.289062 5.644531 806.320312 5.191406 806.265625 C 4.738281 806.210938 4.3125 806.070312 3.917969 805.84375 C 3.519531 805.621094 3.183594 805.328125 2.902344 804.96875 C 2.621094 804.609375 2.421875 804.210938 2.300781 803.769531 C 2.179688 803.332031 2.144531 802.886719 2.199219 802.433594 L 6.417969 768.320312 C 6.472656 767.871094 6.613281 767.445312 6.835938 767.046875 C 7.0625 766.652344 7.355469 766.3125 7.714844 766.035156 C 8.074219 765.753906 8.472656 765.550781 8.910156 765.429688 C 9.351562 765.308594 9.796875 765.277344 10.25 765.332031 C 10.703125 765.386719 11.125 765.527344 11.523438 765.753906 C 11.917969 765.976562 12.257812 766.269531 12.539062 766.628906 C 12.816406 766.988281 13.019531 767.386719 13.140625 767.828125 C 13.261719 768.265625 13.292969 768.710938 13.238281 769.164062 Z M 13.238281 769.164062 " fill-opacity="1" fill-rule="nonzero"/></g></g></g><g mask="url(#a76d1efcb8)"><g transform="matrix(1, 0, 0, 1, 40, 52)"><g clip-path="url(#1a92662163)"><path fill="#3c62a3" d="M 398.285156 7.074219 L 377.324219 34.3125 C 377.046875 34.671875 376.710938 34.96875 376.316406 35.195312 C 375.921875 35.421875 375.496094 35.566406 375.042969 35.625 C 374.59375 35.683594 374.148438 35.652344 373.707031 35.535156 C 373.265625 35.414062 372.867188 35.21875 372.503906 34.9375 C 372.144531 34.660156 371.847656 34.324219 371.621094 33.929688 C 371.394531 33.535156 371.25 33.109375 371.191406 32.660156 C 371.132812 32.207031 371.164062 31.761719 371.28125 31.320312 C 371.402344 30.882812 371.597656 30.480469 371.875 30.121094 L 392.839844 2.882812 C 393.117188 2.519531 393.453125 2.226562 393.847656 2 C 394.242188 1.769531 394.667969 1.628906 395.117188 1.570312 C 395.570312 1.511719 396.015625 1.539062 396.457031 1.660156 C 396.898438 1.777344 397.296875 1.976562 397.660156 2.253906 C 398.019531 2.53125 398.316406 2.867188 398.542969 3.261719 C 398.769531 3.65625 398.914062 4.082031 398.972656 4.535156 C 399.03125 4.984375 399 5.429688 398.882812 5.871094 C 398.761719 6.3125 398.566406 6.710938 398.285156 7.074219 Z M 368.941406 45.207031 L 347.976562 72.445312 C 347.699219 72.804688 347.363281 73.101562 346.96875 73.328125 C 346.574219 73.554688 346.148438 73.699219 345.699219 73.757812 C 345.246094 73.816406 344.800781 73.785156 344.359375 73.667969 C 343.917969 73.550781 343.519531 73.351562 343.15625 73.074219 C 342.796875 72.792969 342.503906 72.457031 342.273438 72.0625 C 342.046875 71.667969 341.90625 71.246094 341.84375 70.792969 C 341.785156 70.339844 341.816406 69.894531 341.933594 69.453125 C 342.054688 69.015625 342.253906 68.613281 342.53125 68.253906 L 363.492188 41.015625 C 363.769531 40.652344 364.105469 40.359375 364.5 40.132812 C 364.898438 39.90625 365.320312 39.761719 365.773438 39.703125 C 366.222656 39.644531 366.671875 39.671875 367.109375 39.792969 C 367.550781 39.910156 367.949219 40.109375 368.3125 40.386719 C 368.671875 40.664062 368.96875 41 369.195312 41.394531 C 369.421875 41.792969 369.566406 42.214844 369.625 42.667969 C 369.683594 43.117188 369.652344 43.566406 369.535156 44.003906 C 369.414062 44.445312 369.21875 44.84375 368.941406 45.207031 Z M 339.59375 83.339844 L 318.628906 110.578125 C 318.351562 110.941406 318.015625 111.234375 317.621094 111.460938 C 317.226562 111.6875 316.800781 111.832031 316.351562 111.890625 C 315.898438 111.949219 315.453125 111.917969 315.011719 111.800781 C 314.574219 111.683594 314.171875 111.484375 313.8125 111.207031 C 313.449219 110.929688 313.15625 110.589844 312.929688 110.195312 C 312.699219 109.800781 312.558594 109.378906 312.5 108.925781 C 312.441406 108.472656 312.46875 108.027344 312.589844 107.589844 C 312.707031 107.148438 312.90625 106.746094 313.183594 106.386719 L 334.144531 79.148438 C 334.421875 78.785156 334.757812 78.492188 335.15625 78.265625 C 335.550781 78.039062 335.972656 77.894531 336.425781 77.835938 C 336.878906 77.777344 337.324219 77.808594 337.761719 77.925781 C 338.203125 78.042969 338.605469 78.242188 338.964844 78.519531 C 339.328125 78.796875 339.621094 79.136719 339.847656 79.53125 C 340.074219 79.925781 340.21875 80.347656 340.277344 80.800781 C 340.335938 81.253906 340.304688 81.699219 340.1875 82.136719 C 340.070312 82.578125 339.871094 82.980469 339.59375 83.339844 Z M 310.246094 121.472656 L 289.285156 148.710938 C 289.003906 149.074219 288.667969 149.367188 288.273438 149.59375 C 287.878906 149.820312 287.457031 149.964844 287.003906 150.023438 C 286.550781 150.082031 286.105469 150.054688 285.664062 149.933594 C 285.226562 149.816406 284.824219 149.617188 284.464844 149.339844 C 284.101562 149.0625 283.808594 148.726562 283.582031 148.332031 C 283.355469 147.933594 283.210938 147.511719 283.152344 147.058594 C 283.09375 146.609375 283.121094 146.160156 283.242188 145.722656 C 283.359375 145.28125 283.558594 144.882812 283.835938 144.519531 L 304.796875 117.28125 C 305.074219 116.921875 305.414062 116.625 305.808594 116.398438 C 306.203125 116.171875 306.625 116.027344 307.078125 115.96875 C 307.53125 115.910156 307.976562 115.941406 308.417969 116.058594 C 308.855469 116.175781 309.257812 116.375 309.617188 116.652344 C 309.980469 116.933594 310.273438 117.269531 310.5 117.664062 C 310.726562 118.058594 310.871094 118.480469 310.929688 118.933594 C 310.988281 119.386719 310.960938 119.832031 310.839844 120.273438 C 310.722656 120.710938 310.523438 121.113281 310.246094 121.472656 Z M 280.898438 159.605469 L 259.9375 186.84375 C 259.660156 187.207031 259.324219 187.5 258.925781 187.726562 C 258.53125 187.957031 258.109375 188.097656 257.65625 188.15625 C 257.203125 188.214844 256.757812 188.1875 256.320312 188.066406 C 255.878906 187.949219 255.476562 187.75 255.117188 187.472656 C 254.753906 187.195312 254.460938 186.859375 254.234375 186.464844 C 254.007812 186.070312 253.863281 185.644531 253.804688 185.191406 C 253.746094 184.742188 253.777344 184.296875 253.894531 183.855469 C 254.011719 183.414062 254.210938 183.015625 254.488281 182.652344 L 275.453125 155.414062 C 275.730469 155.054688 276.066406 154.757812 276.460938 154.53125 C 276.855469 154.304688 277.28125 154.160156 277.730469 154.101562 C 278.183594 154.042969 278.628906 154.074219 279.070312 154.191406 C 279.507812 154.3125 279.910156 154.507812 280.269531 154.789062 C 280.632812 155.066406 280.925781 155.402344 281.152344 155.796875 C 281.382812 156.191406 281.523438 156.617188 281.582031 157.066406 C 281.640625 157.519531 281.613281 157.964844 281.492188 158.40625 C 281.375 158.84375 281.175781 159.246094 280.898438 159.605469 Z M 251.550781 197.742188 L 230.589844 224.980469 C 230.3125 225.339844 229.976562 225.632812 229.582031 225.863281 C 229.183594 226.089844 228.761719 226.230469 228.308594 226.292969 C 227.859375 226.351562 227.410156 226.320312 226.972656 226.203125 C 226.53125 226.082031 226.132812 225.882812 225.769531 225.605469 C 225.410156 225.328125 225.113281 224.992188 224.886719 224.597656 C 224.660156 224.203125 224.515625 223.777344 224.457031 223.328125 C 224.398438 222.875 224.429688 222.429688 224.546875 221.988281 C 224.664062 221.546875 224.863281 221.148438 225.140625 220.785156 L 246.105469 193.546875 C 246.382812 193.1875 246.71875 192.894531 247.113281 192.664062 C 247.507812 192.4375 247.933594 192.296875 248.382812 192.238281 C 248.835938 192.175781 249.28125 192.207031 249.722656 192.324219 C 250.164062 192.445312 250.5625 192.644531 250.925781 192.921875 C 251.285156 193.199219 251.578125 193.535156 251.808594 193.929688 C 252.035156 194.324219 252.175781 194.75 252.238281 195.199219 C 252.296875 195.652344 252.265625 196.097656 252.148438 196.539062 C 252.027344 196.980469 251.828125 197.378906 251.550781 197.742188 Z M 222.203125 235.875 L 201.242188 263.113281 C 200.964844 263.472656 200.628906 263.769531 200.234375 263.996094 C 199.839844 264.222656 199.414062 264.367188 198.960938 264.425781 C 198.511719 264.484375 198.066406 264.453125 197.625 264.335938 C 197.183594 264.214844 196.785156 264.019531 196.421875 263.742188 C 196.0625 263.460938 195.765625 263.125 195.539062 262.730469 C 195.3125 262.335938 195.167969 261.914062 195.109375 261.460938 C 195.050781 261.007812 195.082031 260.5625 195.199219 260.121094 C 195.320312 259.683594 195.515625 259.28125 195.796875 258.921875 L 216.757812 231.683594 C 217.035156 231.320312 217.371094 231.027344 217.765625 230.800781 C 218.160156 230.570312 218.585938 230.429688 219.039062 230.371094 C 219.488281 230.3125 219.933594 230.339844 220.375 230.460938 C 220.816406 230.578125 221.214844 230.777344 221.578125 231.054688 C 221.9375 231.332031 222.234375 231.667969 222.460938 232.0625 C 222.6875 232.457031 222.832031 232.882812 222.890625 233.335938 C 222.949219 233.785156 222.917969 234.230469 222.800781 234.671875 C 222.679688 235.113281 222.484375 235.511719 222.203125 235.875 Z M 192.859375 274.007812 L 171.894531 301.246094 C 171.617188 301.605469 171.28125 301.902344 170.886719 302.128906 C 170.492188 302.355469 170.066406 302.5 169.617188 302.558594 C 169.164062 302.617188 168.71875 302.585938 168.277344 302.46875 C 167.835938 302.351562 167.4375 302.152344 167.074219 301.875 C 166.714844 301.597656 166.421875 301.257812 166.191406 300.863281 C 165.964844 300.46875 165.824219 300.046875 165.765625 299.59375 C 165.703125 299.140625 165.734375 298.695312 165.851562 298.253906 C 165.972656 297.816406 166.171875 297.414062 166.449219 297.054688 L 187.410156 269.816406 C 187.6875 269.453125 188.023438 269.160156 188.421875 268.933594 C 188.816406 268.707031 189.238281 268.5625 189.691406 268.503906 C 190.140625 268.445312 190.589844 268.472656 191.027344 268.59375 C 191.46875 268.710938 191.871094 268.910156 192.230469 269.1875 C 192.589844 269.464844 192.886719 269.800781 193.113281 270.199219 C 193.339844 270.59375 193.484375 271.015625 193.542969 271.46875 C 193.601562 271.917969 193.570312 272.367188 193.453125 272.804688 C 193.335938 273.246094 193.136719 273.648438 192.859375 274.007812 Z M 163.511719 312.140625 L 142.550781 339.378906 C 142.269531 339.742188 141.933594 340.035156 141.539062 340.261719 C 141.144531 340.488281 140.722656 340.632812 140.269531 340.691406 C 139.816406 340.75 139.371094 340.71875 138.929688 340.601562 C 138.492188 340.484375 138.089844 340.285156 137.730469 340.007812 C 137.367188 339.730469 137.074219 339.394531 136.847656 338.996094 C 136.617188 338.601562 136.476562 338.179688 136.417969 337.726562 C 136.359375 337.273438 136.386719 336.828125 136.507812 336.390625 C 136.625 335.949219 136.824219 335.546875 137.101562 335.1875 L 158.0625 307.949219 C 158.339844 307.585938 158.679688 307.292969 159.074219 307.066406 C 159.46875 306.839844 159.890625 306.695312 160.34375 306.636719 C 160.796875 306.578125 161.242188 306.609375 161.679688 306.726562 C 162.121094 306.84375 162.523438 307.042969 162.882812 307.320312 C 163.246094 307.597656 163.539062 307.9375 163.765625 308.332031 C 163.992188 308.726562 164.136719 309.148438 164.195312 309.601562 C 164.253906 310.054688 164.222656 310.5 164.105469 310.941406 C 163.988281 311.378906 163.789062 311.78125 163.511719 312.140625 Z M 134.164062 350.273438 L 113.203125 377.511719 C 112.925781 377.875 112.585938 378.167969 112.191406 378.394531 C 111.796875 378.625 111.375 378.765625 110.921875 378.824219 C 110.46875 378.882812 110.023438 378.855469 109.582031 378.734375 C 109.144531 378.617188 108.742188 378.417969 108.382812 378.140625 C 108.019531 377.863281 107.726562 377.527344 107.5 377.132812 C 107.273438 376.734375 107.128906 376.3125 107.070312 375.859375 C 107.011719 375.410156 107.039062 374.960938 107.160156 374.523438 C 107.277344 374.082031 107.476562 373.683594 107.753906 373.320312 L 128.714844 346.082031 C 128.996094 345.722656 129.332031 345.425781 129.726562 345.199219 C 130.121094 344.972656 130.542969 344.828125 130.996094 344.769531 C 131.449219 344.710938 131.894531 344.742188 132.335938 344.859375 C 132.773438 344.980469 133.175781 345.175781 133.535156 345.453125 C 133.898438 345.734375 134.191406 346.070312 134.417969 346.464844 C 134.648438 346.859375 134.789062 347.28125 134.847656 347.734375 C 134.90625 348.1875 134.878906 348.632812 134.757812 349.074219 C 134.640625 349.511719 134.441406 349.914062 134.164062 350.273438 Z M 104.816406 388.410156 L 83.855469 415.648438 C 83.578125 416.007812 83.242188 416.300781 82.84375 416.53125 C 82.449219 416.757812 82.027344 416.898438 81.574219 416.957031 C 81.125 417.015625 80.675781 416.988281 80.238281 416.867188 C 79.796875 416.75 79.394531 416.550781 79.035156 416.273438 C 78.675781 415.996094 78.378906 415.660156 78.152344 415.265625 C 77.925781 414.871094 77.78125 414.445312 77.722656 413.996094 C 77.664062 413.542969 77.695312 413.097656 77.8125 412.65625 C 77.929688 412.214844 78.128906 411.816406 78.40625 411.453125 L 99.371094 384.214844 C 99.648438 383.855469 99.984375 383.558594 100.378906 383.332031 C 100.773438 383.105469 101.199219 382.960938 101.648438 382.902344 C 102.101562 382.84375 102.546875 382.875 102.988281 382.992188 C 103.429688 383.113281 103.828125 383.308594 104.191406 383.589844 C 104.550781 383.867188 104.84375 384.203125 105.074219 384.597656 C 105.300781 384.992188 105.441406 385.417969 105.5 385.867188 C 105.5625 386.320312 105.53125 386.765625 105.410156 387.207031 C 105.292969 387.648438 105.09375 388.046875 104.816406 388.410156 Z M 75.46875 426.542969 L 54.507812 453.78125 C 54.230469 454.140625 53.894531 454.4375 53.5 454.664062 C 53.105469 454.890625 52.679688 455.035156 52.226562 455.09375 C 51.777344 455.152344 51.332031 455.121094 50.890625 455.003906 C 50.449219 454.882812 50.050781 454.6875 49.6875 454.40625 C 49.328125 454.128906 49.03125 453.792969 48.804688 453.398438 C 48.578125 453.003906 48.433594 452.578125 48.375 452.128906 C 48.316406 451.675781 48.347656 451.230469 48.464844 450.789062 C 48.585938 450.347656 48.78125 449.949219 49.058594 449.585938 L 70.023438 422.347656 C 70.300781 421.988281 70.636719 421.695312 71.03125 421.464844 C 71.425781 421.238281 71.851562 421.097656 72.300781 421.039062 C 72.753906 420.980469 73.199219 421.007812 73.640625 421.128906 C 74.082031 421.246094 74.480469 421.445312 74.84375 421.722656 C 75.203125 422 75.5 422.335938 75.726562 422.730469 C 75.953125 423.125 76.097656 423.550781 76.15625 424 C 76.214844 424.453125 76.183594 424.898438 76.066406 425.339844 C 75.945312 425.78125 75.75 426.179688 75.46875 426.542969 Z M 46.125 464.675781 L 25.160156 491.914062 C 24.882812 492.273438 24.546875 492.570312 24.152344 492.796875 C 23.757812 493.023438 23.332031 493.167969 22.882812 493.226562 C 22.429688 493.285156 21.984375 493.253906 21.542969 493.136719 C 21.101562 493.015625 20.703125 492.820312 20.339844 492.542969 C 19.980469 492.261719 19.6875 491.925781 19.457031 491.53125 C 19.230469 491.136719 19.089844 490.714844 19.027344 490.261719 C 18.96875 489.808594 19 489.363281 19.117188 488.921875 C 19.238281 488.484375 19.4375 488.082031 19.714844 487.722656 L 40.675781 460.484375 C 40.953125 460.121094 41.289062 459.828125 41.683594 459.601562 C 42.082031 459.371094 42.503906 459.230469 42.957031 459.171875 C 43.40625 459.113281 43.855469 459.140625 44.292969 459.261719 C 44.734375 459.378906 45.132812 459.578125 45.496094 459.855469 C 45.855469 460.132812 46.152344 460.46875 46.378906 460.863281 C 46.605469 461.261719 46.75 461.683594 46.808594 462.136719 C 46.867188 462.585938 46.835938 463.035156 46.71875 463.472656 C 46.597656 463.914062 46.402344 464.3125 46.125 464.675781 Z M 16.777344 502.808594 L 9.210938 512.636719 C 8.933594 513 8.597656 513.292969 8.203125 513.519531 C 7.808594 513.746094 7.382812 513.890625 6.933594 513.949219 C 6.480469 514.007812 6.035156 513.980469 5.59375 513.859375 C 5.152344 513.742188 4.753906 513.542969 4.390625 513.265625 C 4.03125 512.988281 3.738281 512.652344 3.507812 512.257812 C 3.28125 511.859375 3.140625 511.4375 3.082031 510.984375 C 3.019531 510.535156 3.050781 510.085938 3.167969 509.648438 C 3.289062 509.207031 3.488281 508.804688 3.765625 508.445312 L 11.328125 498.617188 C 11.605469 498.253906 11.941406 497.960938 12.339844 497.734375 C 12.734375 497.507812 13.15625 497.363281 13.609375 497.304688 C 14.0625 497.246094 14.507812 497.277344 14.945312 497.394531 C 15.386719 497.511719 15.789062 497.710938 16.148438 497.988281 C 16.511719 498.265625 16.804688 498.601562 17.03125 499 C 17.257812 499.394531 17.402344 499.816406 17.460938 500.269531 C 17.519531 500.722656 17.488281 501.167969 17.371094 501.605469 C 17.253906 502.046875 17.054688 502.449219 16.777344 502.808594 Z M 16.777344 502.808594 " fill-opacity="1" fill-rule="nonzero"/></g></g></g><g mask="url(#7d9ed41fe7)"><g transform="matrix(1, 0, 0, 1, 434, 52)"><g clip-path="url(#a8dd16f1e5)"><path fill="#3c62a3" d="M 8.1875 4.054688 L 21.722656 35.648438 C 21.902344 36.066406 21.996094 36.503906 22 36.960938 C 22.003906 37.414062 21.921875 37.855469 21.753906 38.277344 C 21.585938 38.703125 21.339844 39.078125 21.023438 39.402344 C 20.703125 39.730469 20.335938 39.980469 19.917969 40.160156 C 19.496094 40.339844 19.058594 40.433594 18.605469 40.4375 C 18.148438 40.445312 17.710938 40.363281 17.285156 40.191406 C 16.863281 40.023438 16.488281 39.78125 16.164062 39.460938 C 15.835938 39.144531 15.582031 38.773438 15.402344 38.355469 L 1.867188 6.761719 C 1.691406 6.34375 1.597656 5.90625 1.589844 5.449219 C 1.585938 4.992188 1.667969 4.554688 1.835938 4.132812 C 2.007812 3.707031 2.25 3.332031 2.570312 3.007812 C 2.886719 2.679688 3.257812 2.429688 3.675781 2.25 C 4.09375 2.070312 4.53125 1.976562 4.988281 1.972656 C 5.441406 1.964844 5.882812 2.046875 6.304688 2.21875 C 6.726562 2.386719 7.101562 2.628906 7.429688 2.949219 C 7.753906 3.265625 8.007812 3.636719 8.1875 4.054688 Z M 27.136719 48.285156 L 40.671875 79.878906 C 40.851562 80.296875 40.941406 80.734375 40.949219 81.191406 C 40.953125 81.648438 40.871094 82.085938 40.703125 82.507812 C 40.535156 82.933594 40.289062 83.308594 39.972656 83.632812 C 39.652344 83.960938 39.285156 84.210938 38.867188 84.390625 C 38.445312 84.570312 38.007812 84.664062 37.554688 84.667969 C 37.097656 84.675781 36.65625 84.59375 36.234375 84.421875 C 35.8125 84.253906 35.4375 84.011719 35.109375 83.691406 C 34.785156 83.375 34.53125 83.003906 34.351562 82.585938 L 20.816406 50.992188 C 20.636719 50.574219 20.546875 50.136719 20.539062 49.679688 C 20.535156 49.226562 20.617188 48.785156 20.785156 48.363281 C 20.957031 47.9375 21.199219 47.5625 21.519531 47.238281 C 21.835938 46.910156 22.203125 46.660156 22.625 46.480469 C 23.042969 46.300781 23.480469 46.207031 23.9375 46.203125 C 24.390625 46.195312 24.832031 46.277344 25.253906 46.449219 C 25.675781 46.617188 26.050781 46.859375 26.378906 47.179688 C 26.703125 47.496094 26.957031 47.867188 27.136719 48.285156 Z M 46.085938 92.515625 L 59.621094 124.109375 C 59.800781 124.527344 59.890625 124.964844 59.898438 125.421875 C 59.902344 125.878906 59.820312 126.316406 59.652344 126.738281 C 59.480469 127.164062 59.238281 127.539062 58.921875 127.863281 C 58.601562 128.191406 58.234375 128.441406 57.8125 128.621094 C 57.394531 128.800781 56.957031 128.894531 56.503906 128.898438 C 56.046875 128.90625 55.605469 128.824219 55.183594 128.652344 C 54.761719 128.484375 54.386719 128.242188 54.058594 127.921875 C 53.734375 127.605469 53.480469 127.234375 53.300781 126.816406 L 39.765625 95.222656 C 39.585938 94.804688 39.496094 94.367188 39.488281 93.910156 C 39.484375 93.457031 39.566406 93.015625 39.734375 92.59375 C 39.902344 92.167969 40.148438 91.792969 40.464844 91.46875 C 40.785156 91.144531 41.152344 90.890625 41.574219 90.710938 C 41.992188 90.53125 42.429688 90.4375 42.882812 90.433594 C 43.339844 90.425781 43.78125 90.507812 44.203125 90.679688 C 44.625 90.847656 45 91.089844 45.328125 91.410156 C 45.652344 91.730469 45.90625 92.097656 46.085938 92.515625 Z M 65.035156 136.746094 L 78.570312 168.339844 C 78.75 168.757812 78.839844 169.195312 78.847656 169.652344 C 78.851562 170.109375 78.769531 170.546875 78.601562 170.96875 C 78.429688 171.394531 78.1875 171.769531 77.867188 172.09375 C 77.550781 172.421875 77.183594 172.671875 76.761719 172.851562 C 76.34375 173.03125 75.90625 173.125 75.449219 173.128906 C 74.996094 173.136719 74.554688 173.054688 74.132812 172.882812 C 73.710938 172.714844 73.335938 172.472656 73.007812 172.152344 C 72.683594 171.835938 72.429688 171.464844 72.25 171.046875 L 58.714844 139.453125 C 58.535156 139.035156 58.441406 138.597656 58.4375 138.140625 C 58.433594 137.6875 58.515625 137.246094 58.683594 136.824219 C 58.851562 136.398438 59.097656 136.027344 59.414062 135.699219 C 59.734375 135.375 60.101562 135.121094 60.519531 134.941406 C 60.941406 134.761719 61.378906 134.667969 61.832031 134.664062 C 62.289062 134.65625 62.726562 134.738281 63.152344 134.910156 C 63.574219 135.078125 63.949219 135.324219 64.277344 135.640625 C 64.601562 135.960938 64.855469 136.328125 65.035156 136.746094 Z M 83.984375 180.976562 L 97.515625 212.570312 C 97.695312 212.988281 97.789062 213.425781 97.792969 213.882812 C 97.800781 214.339844 97.71875 214.777344 97.550781 215.203125 C 97.378906 215.625 97.136719 216 96.816406 216.324219 C 96.5 216.652344 96.128906 216.902344 95.710938 217.082031 C 95.292969 217.261719 94.855469 217.355469 94.398438 217.359375 C 93.945312 217.367188 93.503906 217.285156 93.082031 217.117188 C 92.65625 216.945312 92.285156 216.703125 91.957031 216.382812 C 91.632812 216.066406 91.378906 215.695312 91.199219 215.277344 L 77.664062 183.683594 C 77.484375 183.265625 77.390625 182.828125 77.386719 182.371094 C 77.382812 181.917969 77.460938 181.476562 77.632812 181.054688 C 77.800781 180.632812 78.046875 180.257812 78.363281 179.929688 C 78.683594 179.605469 79.050781 179.351562 79.46875 179.171875 C 79.890625 178.992188 80.324219 178.898438 80.78125 178.894531 C 81.238281 178.890625 81.675781 178.96875 82.101562 179.140625 C 82.523438 179.308594 82.898438 179.554688 83.222656 179.871094 C 83.550781 180.191406 83.804688 180.558594 83.984375 180.976562 Z M 102.929688 225.207031 L 116.464844 256.800781 C 116.644531 257.21875 116.738281 257.65625 116.742188 258.113281 C 116.75 258.570312 116.667969 259.007812 116.496094 259.433594 C 116.328125 259.855469 116.085938 260.230469 115.765625 260.554688 C 115.449219 260.882812 115.078125 261.136719 114.660156 261.3125 C 114.242188 261.492188 113.804688 261.585938 113.347656 261.589844 C 112.890625 261.597656 112.453125 261.515625 112.03125 261.347656 C 111.605469 261.175781 111.230469 260.933594 110.90625 260.613281 C 110.578125 260.296875 110.328125 259.925781 110.148438 259.507812 L 96.613281 227.914062 C 96.433594 227.496094 96.339844 227.058594 96.335938 226.601562 C 96.328125 226.148438 96.410156 225.707031 96.582031 225.285156 C 96.75 224.863281 96.992188 224.488281 97.3125 224.160156 C 97.628906 223.835938 98 223.582031 98.417969 223.402344 C 98.835938 223.222656 99.273438 223.128906 99.730469 223.125 C 100.1875 223.121094 100.625 223.203125 101.050781 223.371094 C 101.472656 223.539062 101.847656 223.785156 102.171875 224.101562 C 102.5 224.421875 102.75 224.789062 102.929688 225.207031 Z M 121.878906 269.4375 L 135.414062 301.03125 C 135.59375 301.453125 135.6875 301.886719 135.691406 302.34375 C 135.699219 302.800781 135.617188 303.238281 135.445312 303.664062 C 135.277344 304.085938 135.035156 304.460938 134.714844 304.785156 C 134.398438 305.113281 134.027344 305.367188 133.609375 305.546875 C 133.191406 305.722656 132.753906 305.816406 132.296875 305.824219 C 131.839844 305.828125 131.402344 305.746094 130.980469 305.578125 C 130.554688 305.40625 130.179688 305.164062 129.855469 304.84375 C 129.527344 304.527344 129.277344 304.15625 129.097656 303.738281 L 115.5625 272.144531 C 115.382812 271.726562 115.289062 271.289062 115.285156 270.832031 C 115.277344 270.378906 115.359375 269.9375 115.53125 269.515625 C 115.699219 269.09375 115.941406 268.71875 116.261719 268.390625 C 116.578125 268.066406 116.949219 267.8125 117.367188 267.632812 C 117.785156 267.453125 118.222656 267.359375 118.679688 267.355469 C 119.136719 267.351562 119.574219 267.433594 119.996094 267.601562 C 120.421875 267.769531 120.796875 268.015625 121.121094 268.332031 C 121.449219 268.652344 121.699219 269.019531 121.878906 269.4375 Z M 140.828125 313.667969 L 154.363281 345.261719 C 154.542969 345.683594 154.636719 346.121094 154.640625 346.574219 C 154.644531 347.03125 154.566406 347.46875 154.394531 347.894531 C 154.226562 348.316406 153.980469 348.691406 153.664062 349.015625 C 153.34375 349.34375 152.976562 349.597656 152.558594 349.777344 C 152.140625 349.957031 151.703125 350.046875 151.246094 350.054688 C 150.789062 350.058594 150.351562 349.976562 149.925781 349.808594 C 149.503906 349.636719 149.128906 349.394531 148.804688 349.074219 C 148.476562 348.757812 148.222656 348.390625 148.042969 347.96875 L 134.511719 316.375 C 134.332031 315.957031 134.238281 315.519531 134.234375 315.0625 C 134.226562 314.609375 134.308594 314.167969 134.476562 313.746094 C 134.648438 313.324219 134.890625 312.949219 135.210938 312.621094 C 135.527344 312.296875 135.898438 312.042969 136.316406 311.863281 C 136.734375 311.683594 137.171875 311.589844 137.628906 311.585938 C 138.082031 311.582031 138.523438 311.664062 138.945312 311.832031 C 139.371094 312 139.742188 312.246094 140.070312 312.5625 C 140.394531 312.882812 140.648438 313.25 140.828125 313.667969 Z M 159.777344 357.898438 L 173.3125 389.492188 C 173.492188 389.914062 173.585938 390.351562 173.589844 390.804688 C 173.59375 391.261719 173.511719 391.699219 173.34375 392.125 C 173.175781 392.546875 172.929688 392.921875 172.613281 393.246094 C 172.292969 393.574219 171.925781 393.828125 171.507812 394.007812 C 171.085938 394.1875 170.648438 394.277344 170.195312 394.285156 C 169.738281 394.289062 169.300781 394.207031 168.875 394.039062 C 168.453125 393.867188 168.078125 393.625 167.753906 393.304688 C 167.425781 392.988281 167.171875 392.621094 166.992188 392.199219 L 153.457031 360.605469 C 153.277344 360.1875 153.1875 359.75 153.179688 359.296875 C 153.175781 358.839844 153.257812 358.398438 153.425781 357.976562 C 153.597656 357.554688 153.839844 357.179688 154.160156 356.851562 C 154.476562 356.527344 154.84375 356.273438 155.265625 356.09375 C 155.683594 355.914062 156.121094 355.824219 156.578125 355.816406 C 157.03125 355.8125 157.472656 355.894531 157.894531 356.0625 C 158.316406 356.230469 158.691406 356.476562 159.019531 356.792969 C 159.34375 357.113281 159.597656 357.480469 159.777344 357.898438 Z M 178.726562 402.132812 L 192.261719 433.722656 C 192.441406 434.144531 192.53125 434.582031 192.539062 435.035156 C 192.542969 435.492188 192.460938 435.929688 192.292969 436.355469 C 192.125 436.777344 191.878906 437.152344 191.5625 437.480469 C 191.242188 437.804688 190.875 438.058594 190.457031 438.238281 C 190.035156 438.417969 189.597656 438.507812 189.144531 438.515625 C 188.6875 438.519531 188.246094 438.4375 187.824219 438.269531 C 187.402344 438.097656 187.027344 437.855469 186.699219 437.539062 C 186.375 437.21875 186.121094 436.851562 185.941406 436.429688 L 172.40625 404.835938 C 172.226562 404.417969 172.136719 403.980469 172.128906 403.527344 C 172.125 403.070312 172.207031 402.628906 172.375 402.207031 C 172.546875 401.785156 172.789062 401.410156 173.105469 401.082031 C 173.425781 400.757812 173.792969 400.503906 174.214844 400.324219 C 174.632812 400.144531 175.070312 400.054688 175.523438 400.046875 C 175.980469 400.042969 176.421875 400.125 176.84375 400.292969 C 177.265625 400.460938 177.640625 400.707031 177.96875 401.023438 C 178.292969 401.34375 178.546875 401.710938 178.726562 402.132812 Z M 197.675781 446.363281 L 211.210938 477.953125 C 211.390625 478.375 211.480469 478.8125 211.488281 479.265625 C 211.492188 479.722656 211.410156 480.164062 211.242188 480.585938 C 211.070312 481.007812 210.828125 481.382812 210.511719 481.710938 C 210.191406 482.035156 209.824219 482.289062 209.402344 482.46875 C 208.984375 482.648438 208.546875 482.738281 208.089844 482.746094 C 207.636719 482.75 207.195312 482.667969 206.773438 482.5 C 206.351562 482.332031 205.976562 482.085938 205.648438 481.769531 C 205.324219 481.449219 205.070312 481.082031 204.890625 480.660156 L 191.355469 449.070312 C 191.175781 448.648438 191.085938 448.210938 191.078125 447.757812 C 191.074219 447.300781 191.15625 446.859375 191.324219 446.4375 C 191.492188 446.015625 191.738281 445.640625 192.054688 445.3125 C 192.375 444.988281 192.742188 444.734375 193.160156 444.554688 C 193.582031 444.375 194.019531 444.285156 194.472656 444.277344 C 194.929688 444.273438 195.371094 444.355469 195.792969 444.523438 C 196.214844 444.691406 196.589844 444.9375 196.917969 445.253906 C 197.242188 445.574219 197.496094 445.941406 197.675781 446.363281 Z M 216.625 490.59375 L 230.160156 522.1875 C 230.335938 522.605469 230.429688 523.042969 230.4375 523.496094 C 230.441406 523.953125 230.359375 524.394531 230.191406 524.816406 C 230.019531 525.238281 229.777344 525.613281 229.457031 525.941406 C 229.140625 526.265625 228.773438 526.519531 228.351562 526.699219 C 227.933594 526.878906 227.496094 526.96875 227.039062 526.976562 C 226.585938 526.980469 226.144531 526.898438 225.722656 526.730469 C 225.300781 526.5625 224.925781 526.316406 224.597656 526 C 224.273438 525.679688 224.019531 525.3125 223.839844 524.894531 L 210.304688 493.300781 C 210.125 492.878906 210.03125 492.441406 210.027344 491.988281 C 210.023438 491.53125 210.105469 491.09375 210.273438 490.667969 C 210.441406 490.246094 210.6875 489.871094 211.003906 489.542969 C 211.324219 489.21875 211.691406 488.964844 212.109375 488.785156 C 212.53125 488.605469 212.96875 488.515625 213.421875 488.507812 C 213.878906 488.503906 214.316406 488.585938 214.742188 488.753906 C 215.164062 488.925781 215.539062 489.167969 215.863281 489.484375 C 216.191406 489.804688 216.445312 490.171875 216.625 490.59375 Z M 235.574219 534.824219 L 249.105469 566.417969 C 249.285156 566.835938 249.378906 567.273438 249.382812 567.726562 C 249.390625 568.183594 249.308594 568.625 249.140625 569.046875 C 248.96875 569.46875 248.726562 569.84375 248.40625 570.171875 C 248.089844 570.496094 247.71875 570.75 247.300781 570.929688 C 246.882812 571.109375 246.445312 571.199219 245.988281 571.207031 C 245.535156 571.210938 245.09375 571.128906 244.671875 570.960938 C 244.246094 570.792969 243.875 570.546875 243.546875 570.230469 C 243.222656 569.910156 242.96875 569.542969 242.789062 569.125 L 229.253906 537.53125 C 229.074219 537.109375 228.980469 536.671875 228.976562 536.21875 C 228.96875 535.761719 229.050781 535.324219 229.222656 534.898438 C 229.390625 534.476562 229.636719 534.101562 229.953125 533.777344 C 230.273438 533.449219 230.640625 533.195312 231.058594 533.015625 C 231.476562 532.835938 231.914062 532.746094 232.371094 532.738281 C 232.828125 532.734375 233.265625 532.816406 233.691406 532.984375 C 234.113281 533.15625 234.488281 533.398438 234.8125 533.71875 C 235.140625 534.035156 235.394531 534.402344 235.574219 534.824219 Z M 254.519531 579.054688 L 263.121094 599.128906 C 263.300781 599.550781 263.394531 599.988281 263.398438 600.441406 C 263.40625 600.898438 263.324219 601.335938 263.152344 601.761719 C 262.984375 602.183594 262.742188 602.558594 262.421875 602.882812 C 262.105469 603.210938 261.734375 603.464844 261.316406 603.644531 C 260.898438 603.824219 260.460938 603.914062 260.003906 603.921875 C 259.546875 603.925781 259.109375 603.84375 258.6875 603.675781 C 258.261719 603.503906 257.886719 603.261719 257.5625 602.941406 C 257.234375 602.625 256.984375 602.257812 256.804688 601.835938 L 248.203125 581.761719 C 248.023438 581.339844 247.929688 580.902344 247.925781 580.449219 C 247.917969 579.992188 248 579.554688 248.171875 579.128906 C 248.339844 578.707031 248.582031 578.332031 248.902344 578.007812 C 249.21875 577.679688 249.589844 577.425781 250.007812 577.246094 C 250.425781 577.066406 250.863281 576.976562 251.320312 576.96875 C 251.777344 576.964844 252.214844 577.046875 252.636719 577.214844 C 253.0625 577.386719 253.4375 577.628906 253.761719 577.949219 C 254.089844 578.265625 254.339844 578.632812 254.519531 579.054688 Z M 254.519531 579.054688 " fill-opacity="1" fill-rule="nonzero"/></g></g></g><g mask="url(#8e62474a9f)"><g transform="matrix(1, 0, 0, 1, 435, 51)"><g clip-path="url(#bd0a68b032)"><path fill="#3c62a3" d="M 7.535156 3.335938 L 31.394531 28.074219 C 31.710938 28.402344 31.953125 28.777344 32.121094 29.203125 C 32.289062 29.628906 32.367188 30.066406 32.359375 30.523438 C 32.351562 30.980469 32.253906 31.414062 32.074219 31.832031 C 31.890625 32.25 31.636719 32.617188 31.308594 32.933594 C 30.980469 33.25 30.605469 33.492188 30.179688 33.660156 C 29.753906 33.828125 29.316406 33.90625 28.859375 33.898438 C 28.402344 33.890625 27.96875 33.792969 27.550781 33.613281 C 27.132812 33.429688 26.765625 33.175781 26.449219 32.847656 L 2.589844 8.105469 C 2.273438 7.777344 2.03125 7.402344 1.863281 6.980469 C 1.699219 6.554688 1.617188 6.113281 1.625 5.660156 C 1.632812 5.203125 1.730469 4.765625 1.910156 4.347656 C 2.09375 3.929688 2.347656 3.5625 2.675781 3.246094 C 3.003906 2.929688 3.382812 2.6875 3.804688 2.523438 C 4.230469 2.355469 4.667969 2.277344 5.125 2.285156 C 5.582031 2.292969 6.015625 2.386719 6.433594 2.570312 C 6.851562 2.753906 7.21875 3.007812 7.535156 3.335938 Z M 40.941406 37.972656 L 64.800781 62.710938 C 65.117188 63.039062 65.355469 63.414062 65.523438 63.839844 C 65.691406 64.261719 65.769531 64.703125 65.761719 65.160156 C 65.753906 65.613281 65.660156 66.050781 65.476562 66.46875 C 65.292969 66.886719 65.039062 67.253906 64.710938 67.570312 C 64.382812 67.886719 64.007812 68.128906 63.582031 68.296875 C 63.160156 68.460938 62.71875 68.542969 62.261719 68.535156 C 61.808594 68.523438 61.371094 68.429688 60.953125 68.246094 C 60.535156 68.066406 60.167969 67.8125 59.851562 67.484375 L 35.992188 42.742188 C 35.675781 42.414062 35.433594 42.039062 35.265625 41.613281 C 35.101562 41.191406 35.019531 40.75 35.03125 40.292969 C 35.039062 39.839844 35.132812 39.402344 35.316406 38.984375 C 35.496094 38.566406 35.75 38.199219 36.078125 37.882812 C 36.40625 37.566406 36.785156 37.324219 37.207031 37.15625 C 37.632812 36.992188 38.074219 36.914062 38.527344 36.921875 C 38.984375 36.929688 39.421875 37.023438 39.839844 37.207031 C 40.257812 37.386719 40.625 37.644531 40.941406 37.972656 Z M 74.34375 72.605469 L 98.203125 97.347656 C 98.519531 97.675781 98.761719 98.050781 98.925781 98.476562 C 99.09375 98.898438 99.171875 99.339844 99.164062 99.792969 C 99.15625 100.25 99.0625 100.6875 98.878906 101.105469 C 98.699219 101.523438 98.441406 101.890625 98.113281 102.207031 C 97.785156 102.523438 97.410156 102.765625 96.984375 102.929688 C 96.5625 103.097656 96.121094 103.175781 95.667969 103.167969 C 95.210938 103.160156 94.773438 103.066406 94.355469 102.882812 C 93.9375 102.703125 93.570312 102.445312 93.253906 102.117188 L 69.394531 77.378906 C 69.078125 77.050781 68.835938 76.675781 68.671875 76.25 C 68.503906 75.824219 68.425781 75.386719 68.433594 74.929688 C 68.441406 74.476562 68.535156 74.039062 68.71875 73.621094 C 68.898438 73.203125 69.15625 72.835938 69.484375 72.519531 C 69.8125 72.203125 70.1875 71.960938 70.613281 71.792969 C 71.035156 71.628906 71.476562 71.546875 71.929688 71.554688 C 72.386719 71.566406 72.824219 71.660156 73.242188 71.839844 C 73.660156 72.023438 74.027344 72.277344 74.34375 72.605469 Z M 107.746094 107.242188 L 131.605469 131.980469 C 131.921875 132.308594 132.164062 132.6875 132.332031 133.109375 C 132.496094 133.535156 132.578125 133.976562 132.566406 134.429688 C 132.558594 134.886719 132.464844 135.324219 132.28125 135.742188 C 132.101562 136.160156 131.84375 136.527344 131.515625 136.84375 C 131.1875 137.160156 130.8125 137.398438 130.390625 137.566406 C 129.964844 137.734375 129.523438 137.8125 129.070312 137.804688 C 128.613281 137.796875 128.175781 137.703125 127.757812 137.519531 C 127.339844 137.335938 126.972656 137.082031 126.65625 136.753906 L 102.796875 112.015625 C 102.480469 111.6875 102.238281 111.308594 102.074219 110.886719 C 101.90625 110.460938 101.828125 110.023438 101.835938 109.566406 C 101.84375 109.109375 101.9375 108.671875 102.121094 108.257812 C 102.304688 107.839844 102.558594 107.472656 102.886719 107.15625 C 103.214844 106.839844 103.589844 106.597656 104.015625 106.429688 C 104.4375 106.261719 104.878906 106.183594 105.335938 106.191406 C 105.789062 106.199219 106.226562 106.296875 106.644531 106.476562 C 107.0625 106.660156 107.429688 106.914062 107.746094 107.242188 Z M 141.148438 141.878906 L 165.007812 166.617188 C 165.324219 166.945312 165.566406 167.324219 165.734375 167.746094 C 165.898438 168.171875 165.980469 168.609375 165.972656 169.066406 C 165.960938 169.523438 165.867188 169.957031 165.6875 170.375 C 165.503906 170.792969 165.25 171.160156 164.921875 171.476562 C 164.59375 171.792969 164.214844 172.035156 163.792969 172.203125 C 163.367188 172.371094 162.929688 172.449219 162.472656 172.441406 C 162.015625 172.433594 161.578125 172.335938 161.160156 172.15625 C 160.746094 171.972656 160.378906 171.71875 160.0625 171.390625 L 136.203125 146.648438 C 135.886719 146.320312 135.644531 145.945312 135.476562 145.523438 C 135.308594 145.097656 135.230469 144.65625 135.238281 144.203125 C 135.246094 143.746094 135.34375 143.308594 135.523438 142.890625 C 135.707031 142.472656 135.960938 142.105469 136.289062 141.789062 C 136.617188 141.472656 136.992188 141.230469 137.417969 141.066406 C 137.84375 140.898438 138.28125 140.820312 138.738281 140.828125 C 139.191406 140.835938 139.628906 140.929688 140.046875 141.113281 C 140.464844 141.296875 140.832031 141.550781 141.148438 141.878906 Z M 174.550781 176.515625 L 198.410156 201.253906 C 198.726562 201.582031 198.96875 201.957031 199.136719 202.382812 C 199.304688 202.804688 199.382812 203.246094 199.375 203.703125 C 199.367188 204.15625 199.269531 204.59375 199.089844 205.011719 C 198.90625 205.429688 198.652344 205.796875 198.324219 206.113281 C 197.996094 206.429688 197.621094 206.671875 197.195312 206.839844 C 196.769531 207.003906 196.332031 207.085938 195.875 207.078125 C 195.417969 207.066406 194.984375 206.972656 194.566406 206.789062 C 194.148438 206.609375 193.78125 206.355469 193.464844 206.027344 L 169.605469 181.285156 C 169.289062 180.957031 169.046875 180.582031 168.878906 180.15625 C 168.710938 179.734375 168.632812 179.292969 168.640625 178.835938 C 168.648438 178.382812 168.746094 177.945312 168.925781 177.527344 C 169.109375 177.109375 169.363281 176.742188 169.691406 176.425781 C 170.019531 176.109375 170.398438 175.867188 170.820312 175.703125 C 171.246094 175.535156 171.683594 175.457031 172.140625 175.464844 C 172.597656 175.472656 173.03125 175.566406 173.449219 175.75 C 173.867188 175.929688 174.234375 176.1875 174.550781 176.515625 Z M 207.957031 211.148438 L 231.816406 235.890625 C 232.132812 236.21875 232.371094 236.59375 232.539062 237.019531 C 232.707031 237.441406 232.785156 237.882812 232.777344 238.339844 C 232.769531 238.792969 232.675781 239.230469 232.492188 239.648438 C 232.308594 240.066406 232.054688 240.433594 231.726562 240.75 C 231.398438 241.066406 231.023438 241.308594 230.597656 241.472656 C 230.175781 241.640625 229.734375 241.71875 229.277344 241.710938 C 228.824219 241.703125 228.386719 241.609375 227.96875 241.425781 C 227.550781 241.246094 227.183594 240.988281 226.867188 240.660156 L 203.007812 215.921875 C 202.691406 215.59375 202.449219 215.21875 202.28125 214.792969 C 202.117188 214.371094 202.035156 213.929688 202.046875 213.472656 C 202.054688 213.019531 202.148438 212.582031 202.332031 212.164062 C 202.511719 211.746094 202.765625 211.378906 203.09375 211.0625 C 203.421875 210.746094 203.800781 210.503906 204.222656 210.335938 C 204.648438 210.171875 205.089844 210.089844 205.542969 210.097656 C 206 210.109375 206.4375 210.203125 206.855469 210.386719 C 207.273438 210.566406 207.640625 210.820312 207.957031 211.148438 Z M 241.359375 245.785156 L 265.21875 270.527344 C 265.535156 270.855469 265.777344 271.230469 265.941406 271.652344 C 266.109375 272.078125 266.1875 272.519531 266.179688 272.972656 C 266.171875 273.429688 266.078125 273.867188 265.894531 274.285156 C 265.714844 274.703125 265.457031 275.070312 265.128906 275.386719 C 264.800781 275.703125 264.425781 275.945312 264 276.109375 C 263.578125 276.277344 263.136719 276.355469 262.683594 276.347656 C 262.226562 276.339844 261.789062 276.246094 261.371094 276.0625 C 260.953125 275.878906 260.585938 275.625 260.269531 275.296875 L 236.410156 250.558594 C 236.09375 250.230469 235.851562 249.851562 235.6875 249.429688 C 235.519531 249.003906 235.441406 248.566406 235.449219 248.109375 C 235.457031 247.652344 235.550781 247.21875 235.734375 246.800781 C 235.914062 246.382812 236.171875 246.015625 236.5 245.699219 C 236.828125 245.382812 237.203125 245.140625 237.628906 244.972656 C 238.050781 244.804688 238.492188 244.726562 238.945312 244.734375 C 239.402344 244.742188 239.839844 244.839844 240.257812 245.019531 C 240.675781 245.203125 241.042969 245.457031 241.359375 245.785156 Z M 274.761719 280.421875 L 298.160156 304.683594 C 298.476562 305.011719 298.71875 305.390625 298.886719 305.8125 C 299.050781 306.238281 299.132812 306.675781 299.125 307.132812 C 299.117188 307.589844 299.019531 308.023438 298.839844 308.441406 C 298.65625 308.859375 298.402344 309.226562 298.074219 309.542969 C 297.746094 309.859375 297.367188 310.101562 296.945312 310.269531 C 296.519531 310.4375 296.082031 310.515625 295.625 310.507812 C 295.167969 310.5 294.734375 310.402344 294.316406 310.222656 C 293.898438 310.039062 293.53125 309.785156 293.214844 309.457031 L 269.8125 285.195312 C 269.496094 284.867188 269.253906 284.488281 269.089844 284.066406 C 268.921875 283.640625 268.84375 283.199219 268.851562 282.746094 C 268.859375 282.289062 268.953125 281.851562 269.136719 281.433594 C 269.320312 281.015625 269.574219 280.648438 269.902344 280.332031 C 270.230469 280.015625 270.605469 279.777344 271.03125 279.609375 C 271.453125 279.441406 271.894531 279.363281 272.351562 279.371094 C 272.804688 279.378906 273.242188 279.472656 273.660156 279.65625 C 274.078125 279.839844 274.445312 280.09375 274.761719 280.421875 Z M 274.761719 280.421875 " fill-opacity="1" fill-rule="nonzero"/></g></g></g><g mask="url(#fae3527af3)"><g transform="matrix(1, 0, 0, 1, 68, 51)"><g clip-path="url(#fa36e7d3c1)"><path fill="#3c62a3" d="M 368.640625 7.996094 L 339.738281 26.589844 C 339.355469 26.839844 338.9375 27 338.488281 27.082031 C 338.039062 27.164062 337.59375 27.15625 337.148438 27.058594 C 336.703125 26.964844 336.292969 26.785156 335.917969 26.523438 C 335.542969 26.265625 335.234375 25.945312 334.988281 25.558594 C 334.742188 25.175781 334.578125 24.761719 334.496094 24.3125 C 334.414062 23.863281 334.421875 23.417969 334.519531 22.972656 C 334.617188 22.527344 334.792969 22.117188 335.054688 21.742188 C 335.3125 21.367188 335.632812 21.058594 336.019531 20.808594 L 364.921875 2.214844 C 365.308594 1.96875 365.722656 1.804688 366.171875 1.722656 C 366.621094 1.640625 367.066406 1.648438 367.511719 1.746094 C 367.957031 1.84375 368.367188 2.019531 368.742188 2.28125 C 369.117188 2.539062 369.425781 2.863281 369.671875 3.246094 C 369.921875 3.628906 370.082031 4.042969 370.164062 4.492188 C 370.246094 4.941406 370.238281 5.386719 370.140625 5.832031 C 370.046875 6.28125 369.867188 6.6875 369.605469 7.0625 C 369.347656 7.4375 369.027344 7.75 368.640625 7.996094 Z M 328.175781 34.03125 L 299.269531 52.625 C 298.886719 52.871094 298.46875 53.035156 298.023438 53.117188 C 297.574219 53.199219 297.125 53.191406 296.679688 53.09375 C 296.234375 52.996094 295.824219 52.820312 295.453125 52.558594 C 295.078125 52.300781 294.765625 51.976562 294.519531 51.59375 C 294.273438 51.210938 294.109375 50.796875 294.027344 50.347656 C 293.945312 49.898438 293.953125 49.453125 294.050781 49.007812 C 294.148438 48.5625 294.324219 48.152344 294.585938 47.777344 C 294.84375 47.402344 295.167969 47.089844 295.550781 46.84375 L 324.457031 28.25 C 324.839844 28.003906 325.253906 27.839844 325.703125 27.757812 C 326.152344 27.675781 326.597656 27.683594 327.042969 27.78125 C 327.488281 27.878906 327.898438 28.054688 328.273438 28.316406 C 328.648438 28.574219 328.960938 28.894531 329.207031 29.28125 C 329.453125 29.664062 329.617188 30.078125 329.699219 30.527344 C 329.777344 30.976562 329.769531 31.421875 329.675781 31.867188 C 329.578125 32.3125 329.398438 32.722656 329.140625 33.097656 C 328.878906 33.472656 328.558594 33.78125 328.175781 34.03125 Z M 287.707031 60.0625 L 258.800781 78.660156 C 258.417969 78.90625 258.003906 79.070312 257.554688 79.152344 C 257.105469 79.234375 256.660156 79.226562 256.214844 79.128906 C 255.769531 79.03125 255.359375 78.851562 254.984375 78.59375 C 254.609375 78.332031 254.296875 78.011719 254.050781 77.628906 C 253.804688 77.246094 253.640625 76.828125 253.558594 76.382812 C 253.480469 75.933594 253.488281 75.484375 253.582031 75.039062 C 253.679688 74.59375 253.859375 74.183594 254.117188 73.8125 C 254.378906 73.4375 254.699219 73.125 255.082031 72.878906 L 283.988281 54.28125 C 284.371094 54.035156 284.789062 53.871094 285.234375 53.792969 C 285.683594 53.710938 286.132812 53.71875 286.578125 53.816406 C 287.023438 53.910156 287.433594 54.089844 287.808594 54.347656 C 288.179688 54.609375 288.492188 54.929688 288.738281 55.3125 C 288.984375 55.695312 289.148438 56.113281 289.230469 56.5625 C 289.3125 57.011719 289.304688 57.457031 289.207031 57.902344 C 289.109375 58.347656 288.933594 58.757812 288.671875 59.132812 C 288.414062 59.507812 288.089844 59.816406 287.707031 60.0625 Z M 247.238281 86.097656 L 218.335938 104.695312 C 217.953125 104.941406 217.535156 105.105469 217.085938 105.1875 C 216.636719 105.265625 216.191406 105.257812 215.746094 105.164062 C 215.300781 105.066406 214.890625 104.886719 214.515625 104.628906 C 214.140625 104.367188 213.832031 104.046875 213.585938 103.664062 C 213.335938 103.28125 213.175781 102.863281 213.09375 102.414062 C 213.011719 101.96875 213.019531 101.519531 213.117188 101.074219 C 213.210938 100.628906 213.390625 100.21875 213.652344 99.84375 C 213.910156 99.46875 214.230469 99.160156 214.617188 98.914062 L 243.519531 80.316406 C 243.902344 80.070312 244.320312 79.90625 244.769531 79.824219 C 245.21875 79.746094 245.664062 79.753906 246.109375 79.847656 C 246.554688 79.945312 246.964844 80.125 247.339844 80.382812 C 247.714844 80.644531 248.023438 80.964844 248.269531 81.347656 C 248.515625 81.730469 248.679688 82.148438 248.761719 82.597656 C 248.84375 83.042969 248.835938 83.492188 248.738281 83.9375 C 248.640625 84.382812 248.464844 84.792969 248.203125 85.167969 C 247.945312 85.542969 247.625 85.851562 247.238281 86.097656 Z M 206.773438 112.132812 L 177.867188 130.730469 C 177.484375 130.976562 177.066406 131.140625 176.621094 131.21875 C 176.171875 131.300781 175.722656 131.292969 175.277344 131.195312 C 174.832031 131.101562 174.421875 130.921875 174.046875 130.664062 C 173.675781 130.402344 173.363281 130.082031 173.117188 129.699219 C 172.871094 129.3125 172.707031 128.898438 172.625 128.449219 C 172.542969 128 172.550781 127.554688 172.648438 127.109375 C 172.746094 126.664062 172.921875 126.253906 173.183594 125.878906 C 173.441406 125.503906 173.765625 125.195312 174.148438 124.949219 L 203.054688 106.351562 C 203.4375 106.105469 203.851562 105.941406 204.300781 105.859375 C 204.75 105.777344 205.195312 105.785156 205.640625 105.882812 C 206.085938 105.980469 206.496094 106.15625 206.871094 106.417969 C 207.246094 106.675781 207.558594 107 207.804688 107.382812 C 208.050781 107.765625 208.214844 108.183594 208.296875 108.628906 C 208.375 109.078125 208.367188 109.527344 208.273438 109.972656 C 208.175781 110.417969 207.996094 110.828125 207.738281 111.199219 C 207.476562 111.574219 207.15625 111.886719 206.773438 112.132812 Z M 166.304688 138.167969 L 137.398438 156.761719 C 137.015625 157.007812 136.601562 157.171875 136.152344 157.253906 C 135.703125 157.335938 135.257812 157.328125 134.8125 157.230469 C 134.367188 157.132812 133.957031 156.957031 133.582031 156.695312 C 133.207031 156.4375 132.894531 156.117188 132.648438 155.730469 C 132.402344 155.347656 132.238281 154.933594 132.15625 154.484375 C 132.078125 154.035156 132.085938 153.589844 132.179688 153.144531 C 132.277344 152.699219 132.457031 152.289062 132.714844 151.914062 C 132.976562 151.539062 133.296875 151.226562 133.679688 150.980469 L 162.585938 132.386719 C 162.96875 132.140625 163.386719 131.976562 163.832031 131.894531 C 164.28125 131.8125 164.730469 131.820312 165.175781 131.917969 C 165.621094 132.015625 166.03125 132.191406 166.402344 132.453125 C 166.777344 132.710938 167.089844 133.035156 167.335938 133.417969 C 167.582031 133.800781 167.746094 134.214844 167.828125 134.664062 C 167.910156 135.113281 167.902344 135.558594 167.804688 136.003906 C 167.707031 136.449219 167.527344 136.859375 167.269531 137.234375 C 167.007812 137.609375 166.6875 137.921875 166.304688 138.167969 Z M 125.835938 164.203125 L 96.933594 182.796875 C 96.546875 183.042969 96.132812 183.207031 95.683594 183.289062 C 95.234375 183.371094 94.789062 183.363281 94.34375 183.265625 C 93.898438 183.167969 93.488281 182.992188 93.113281 182.730469 C 92.738281 182.472656 92.429688 182.148438 92.183594 181.765625 C 91.933594 181.382812 91.769531 180.96875 91.691406 180.519531 C 91.609375 180.070312 91.617188 179.625 91.714844 179.175781 C 91.808594 178.730469 91.988281 178.324219 92.25 177.949219 C 92.507812 177.574219 92.828125 177.261719 93.210938 177.015625 L 122.117188 158.421875 C 122.5 158.171875 122.917969 158.007812 123.367188 157.929688 C 123.8125 157.847656 124.261719 157.855469 124.707031 157.953125 C 125.152344 158.046875 125.5625 158.226562 125.9375 158.488281 C 126.3125 158.746094 126.621094 159.066406 126.867188 159.453125 C 127.113281 159.835938 127.277344 160.25 127.359375 160.699219 C 127.441406 161.148438 127.433594 161.59375 127.335938 162.039062 C 127.238281 162.484375 127.0625 162.894531 126.800781 163.269531 C 126.542969 163.644531 126.21875 163.953125 125.835938 164.203125 Z M 85.371094 190.234375 L 56.464844 208.832031 C 56.082031 209.078125 55.664062 209.242188 55.214844 209.324219 C 54.769531 209.402344 54.320312 209.398438 53.875 209.300781 C 53.429688 209.203125 53.019531 209.023438 52.644531 208.765625 C 52.269531 208.503906 51.960938 208.183594 51.714844 207.800781 C 51.46875 207.417969 51.304688 207 51.222656 206.554688 C 51.140625 206.105469 51.148438 205.65625 51.246094 205.210938 C 51.34375 204.765625 51.519531 204.355469 51.78125 203.980469 C 52.039062 203.609375 52.363281 203.296875 52.746094 203.050781 L 81.652344 184.453125 C 82.035156 184.207031 82.449219 184.042969 82.898438 183.964844 C 83.347656 183.882812 83.792969 183.890625 84.238281 183.984375 C 84.683594 184.082031 85.09375 184.261719 85.46875 184.519531 C 85.84375 184.78125 86.152344 185.101562 86.402344 185.484375 C 86.648438 185.867188 86.8125 186.285156 86.890625 186.734375 C 86.972656 187.183594 86.964844 187.628906 86.867188 188.074219 C 86.773438 188.519531 86.59375 188.929688 86.335938 189.304688 C 86.074219 189.679688 85.753906 189.988281 85.371094 190.234375 Z M 44.902344 216.269531 L 15.996094 234.867188 C 15.613281 235.113281 15.199219 235.277344 14.75 235.359375 C 14.300781 235.4375 13.855469 235.429688 13.410156 235.335938 C 12.960938 235.238281 12.554688 235.058594 12.179688 234.800781 C 11.804688 234.539062 11.492188 234.21875 11.246094 233.835938 C 11 233.453125 10.835938 233.035156 10.753906 232.585938 C 10.675781 232.140625 10.683594 231.691406 10.777344 231.246094 C 10.875 230.800781 11.054688 230.390625 11.3125 230.015625 C 11.574219 229.640625 11.894531 229.332031 12.277344 229.085938 L 41.183594 210.488281 C 41.566406 210.242188 41.980469 210.078125 42.429688 209.996094 C 42.878906 209.917969 43.328125 209.925781 43.773438 210.019531 C 44.21875 210.117188 44.628906 210.296875 45 210.554688 C 45.375 210.816406 45.6875 211.136719 45.933594 211.519531 C 46.179688 211.902344 46.34375 212.320312 46.425781 212.765625 C 46.507812 213.214844 46.5 213.664062 46.402344 214.109375 C 46.304688 214.554688 46.125 214.964844 45.867188 215.339844 C 45.605469 215.710938 45.285156 216.023438 44.902344 216.269531 Z M 44.902344 216.269531 " fill-opacity="1" fill-rule="nonzero"/></g></g></g></g></g></g></svg>