<svg xmlns="http://www.w3.org/2000/svg" viewBox="0 0 240 240"><rect width="240" height="240" fill="#ffebd2"/><path d="M120 180s-60-35-60-80c0-22 18-40 40-40 10 0 18 5 20 12 2-7 10-12 20-12 22 0 40 18 40 40 0 45-60 80-60 80z" fill="#b15043"/><circle cx="60" cy="60" r="6" fill="#273248"/><circle cx="180" cy="60" r="6" fill="#273248"/><circle cx="200" cy="120" r="6" fill="#273248"/><circle cx="40" cy="120" r="6" fill="#273248"/><path d="M60 60l60 60M180 60l-60 60M200 120l-80 0M40 120l80 0" stroke="#273248" stroke-width="3" stroke-dasharray="4 4"/><text x="120" y="220" text-anchor="middle" font="700 22px Inter,system-ui,sans-serif" fill="#273248">Care.ai</text></svg>
